<svg xmlns="http://www.w3.org/2000/svg" viewBox="0 0 2240 1888"><path fill="#5089f7" d="M1858.8 451.4c-62.1 29.9-118.7 64.8-175.2 101.7l-25.8 16.8c-117.3 76.4-227.5 162.6-328.9 258.5l-30 28.3c-14.2 13.4-28 26.4-41.3 40.9-21.1 23-40.3 45.9-59.3 70.4l-14.1 18.2c-10.9 14.1-56.2 66.7-74.4 39.9-5.4-8-12.5-15.9-16.2-25.2-14.1-34.9-14.3-53-4.9-91l43.7-178c9.8-40 19.3-77.2 34.8-115.4 21.8-53.3 45.6-103.7 70.3-155.7 16.7-35.3 33.3-68.7 46.4-105.3 6.6-18.5 9.6-38 5.5-56.7-7.1-32.5-54.4-36-81.3-31.4l-58.3 9.9c28.6-22.9 58.9-42.7 91.7-59.6 7-3.6 15.3-3.9 20-12.7-43.9-29.4-101.2-42.4-153.2-46.3-40.7-3.1-91.3 4.9-130.8 16.6l-30.9 9.2c-171.9 51.1-359.4 170.9-491.8 292.1-22.4 20.5-42.3 41-63.2 63.1-55.9 59.2-105.4 126-144.6 197.6-4.7 8.5-8.5 17-15.6 25.3C237 651.1 277.5 537.3 340.1 446c19.4-28.4 38.7-54.5 62.2-79.8 18.7-20.2 50-51.5 70.8-69.2 84.2-71.5 180.3-125.9 285.1-162.2 189.4-65.5 399.5-74.6 593.4-26.2 82.5 20.6 159.5 51.4 233.8 92.3 53.9 29.6 102.3 64.9 148.6 105.2 11 9.6 19.3 20.3 31.6 28.4 9.7 14.5 23.2 24.4 34.3 37.5 21.6 25.3 41.5 50.4 59.2 77.8 42.1-21.2 85.5-35.9 130.9-47.4 16.5-4.2 32.1-7.1 49-7.5l33 31.5 57 55.8c-23 56.1-54.2 105.4-93.9 150.9l-75 1.1c-5.4 0-10.4 0-15.2 3.2 33.4 124.5 28.1 251.9-18 373.2 21.1-6.8 37-17.2 54.7-26.7l35.3-19c2.2-1.2 5.9-1 7.9.6l41.7 32.3c1.9 1.5 3.6 3.3 3.4 5.2-.2 1.5-1.3 4-3.5 5.5l-198.9 138.1c-5.9 4.1-11 6.2-17.3 9.6.2-7.4 4.7-11.2 8.1-16.2 18.3-26 50.8-87.9 62.7-121.2-79.3 34.3-152 66.7-234.8 86.4l-105.1 25.1c-53.3 12.7-115.3 20.8-164.8-6.3-68.7-37.6-65.6-115.5-35.8-178.8 13.6-28.9 39.1-65.4 62-87.2l26.9-25.5c90.6-86 262-166.3 390.7-188.6 27.6-4.8 53.5-7.6 81.4-10.9-4.8-23.1-11.8-41.9-20.2-62-17.4-41.5-37-80.6-62.2-119.9Zm-312.4 80.5c-4.8-7.7-7.2-13.2-12.3-18.4-7.6 2.3-13.5 6.5-19.1 11.5l-64.1 57.7c-6.7 6-29.8 26.3-36.6 22.3-18.6-11 54.8-121.2 65.7-137.2 25.8-37.9 50.3-75.1 71.9-115.6 8.5-16 30.3-68.4 5.7-77.7-4.9-1.9-12.4 3.6-16 7.1-21.5 20.4-41.5 40.7-61.8 62.3-9.9 10.6-47.8 52.8-59.6 46.8-2.2-1.1-4-4.7-4.6-8.3-8.2-44.5 2.3-82.7-3.1-112.4-7.9-43.2-75.5 44.4-80.4 54.8-1.7 3.7 6.9 12 10.2 10 4.7-2.8 7.2-9.9 15.2-9.5 1.3 33.4 1.3 66.3 8 98.7 4.1 19.7 20.4 30.8 40 25.3 32.2-9 67.3-49.8 88.3-75.3l30.1-36.6c12.6 1.4-28.6 62.5-31.2 66-46.4 62.7-90.1 126-125.1 196.1-7.9 15.8-18.5 47.6-2.6 59 18.1 13 47.1-10.3 62.9-22.3 13.9-10.6 26.4-21.1 39.4-32.8l79.1-71.4Z"/><path fill="#5089f7" d="M1847.3 1158.7c-26.9 42.1-78.2 95.4-114.6 128-66.6 59.4-141 106.6-222.7 143-174.9 77.8-364.9 102.5-554.5 76.4-109.7-15.1-215.3-47.7-313.6-98-68-34.8-129.3-77.2-185.6-128.3-18.9-17.2-36.5-33.8-53-52.8l-20.6-23.9c-34.1-39.4-61.6-83.5-85.9-130.7l69.9-59.7c6-5.1 9.9-10.9 17.2-15l181.4-156.2L768.6 667l142.1-121.8c13.4-11.5 26.1-21.6 38-34.3 10.6-5.7 15.4-16.3 29.6-21.4l-47.4 172.1-26.3 98c-26.7 99.2-47.3 198.3-61 300.3-4.5 33.1-.4 64.8 14.5 93.9 33.6 65.7 118.7 40.8 172.5 19.1 13.1-5.3 24.7-12.4 39.6-14.8-12.6 57.2-6.6 108.2 38 148.1 34 30.4 96.8 45.2 141.3 45.2h23.1c48.1 0 135.2-16.1 184-28.5 128.2-32.5 250.5-82.1 364.2-149.2 10-5.9 17.6-11.3 26.5-14.8ZM497.9 786c-21.6 20.2-103.1 98.3-130.6 76.4-4.6-3.6-11-10.8-10.6-19 1.2-25.8 8.8-49.6 19-73.9 25-59.3 57.7-113.5 97.9-163.8 29.1-36.5 61.4-67.4 98.2-96.1 39.5-30.9 83-53.7 130.1-72.2 80.8-31.7 209.4-66 296.7-54.6-19.9 12.8-38 26.8-59.2 38.3-36.6 19.9-72 39.2-104.6 65.8-18.4 14-35.6 27.8-53.3 42.5L737.7 566 616.8 674.7 497.9 785.9Z"/><path fill="#060606" d="m221 1833.6-51.4.4-.8-106.2c-.1-13.3-6.8-25.1-19.9-28.6-16-4.3-32.3-1.2-47 8.2V1834l-53-.2-.2-155.6c0-4.4-2.1-7.7-.2-12.4 13.5.7 27.5-1 40.9.8 1.9.3 2.6 7.9 6.6 6.1 32.8-14.7 72.1-15.9 101.3 5.8 29.1-15.2 60.8-20.7 91.9-13.2 28 6.8 49.8 27.4 50.1 57.3l1 111.3h-52.2l-.7-107.6c0-11.2-5.5-22.2-15.9-25.8-17.7-6.2-36.7-3.1-52.5 6.8-.9 5.1 1.9 9.4 1.9 14.8v111.6ZM536.2 1666l.4 123.9c0 15.2.9 28.9 1.8 44.1l-43.7-.6c-2.7-1.4-2.5-7-4.2-9.4-25 17.1-64.2 16.4-89.7 5.2-22.5-9.9-38.2-30.2-38.1-55.2v-107.8h52l.5 102c0 10.1 3 21.9 11.8 27.5 20.9 13.3 57.9 4.5 58-11.5l.5-118h50.9Z"/><path fill="#5089f7" d="M1317.6 1677.5c-4.8 1.7-3.4 6.5-5.8 7.8-5.7 3.2-44.6-12.4-71.9 12.9l-.4 134.9c-10.7 1.6-20.3 1.6-31.1.1v-166.4c11.8-.3 29.8-6.4 29.3 8.3 24.8-13.2 52.7-16.8 80.7-10 8.8 2.2 17.5-1 26.5 1.7l59.7 144.1 33.1-78.9 26.7-65.7c10.2-.9 19.2-1.1 30.4 0l-73.3 167.2c-11.6 1.3-21.7.4-34.3.5l-69.5-156.7Z"/><path fill="#060606" d="M701.1 1785.2c0 12.4 9.1 19.7 20.1 18.1 3.5-.5 6.6-1.7 9.9-.8 1.2 10 1.6 19.1 1.5 29.8-18 6.4-37.4 5.7-55-1.3s-28.3-23.3-28.3-43.3l.2-184.8 51.5.5.6 62.1 41.6.5-4.1 34-37.6.8-.5 84.2Z"/><path fill="#5089f7" d="M1163.1 1803c5.4 4.9 8.6 9.6 10.3 15.3-.5 2.7-5.3 5.7-8.4 6.9-32.4 13.5-68.1 16.8-102 8.1-27.3-7-44.4-28.5-46.2-56.3-1.1-16.9-1.2-33.5-.2-50.7 1.5-27.4 18.3-50.7 44.7-59.3 37.8-12.4 102.2-10.1 120.4 33 7 16.5 6.7 34.3 4.4 51.8.2 5.5-2.3 11.4-8.3 11.6l-131 3.1c-4.4 23.3 8.5 44.4 31.8 49.1 28.8 5.8 57.6 1.8 84.7-12.7Zm-5.8-57.8c2.8-26.5 0-49.8-25.3-59.2-30.9-11.3-80.5-5.4-85.3 34.4-1 8.5-.9 16.6-.8 26.8l111.5-2Zm754.5 88.1c-45.5 11.5-113.7 5.8-124.9-50.5-4-20.2-4.1-40.5-1.3-60.9 3.3-24.4 17.7-44.9 41.4-53.3 43.6-15.4 120-13.8 133.5 45.2 4.1 18 2.6 35.6 2.2 54.2-.7 31.3-19.3 57.3-50.8 65.3Zm18.5-49c4.7-22.3 9.5-79.3-15.4-93-32.4-17.8-92.4-14.5-98.9 26.6-3.3 20.3-3 41.4.2 61.8 2.4 15.4 11.4 26.9 26 32.1 28.8 10.1 80.4 9.1 88.1-27.4Z"/><path fill="#060606" d="M567.1 1833.7v-235.4h51.7v235.4z"/><path fill="#5089f7" d="M2143 1809.5c-17.4 39.5-150.4 41.5-169.9-12.6 4.5-4.5 17.4-11.5 23.3-7.8 7.3 4.7 10.3 13.8 18.9 17.7 27 12.1 58.5 15.8 86.4 5.5 7.3-2.7 12.9-7.3 14.8-13.1 6.3-18.7-15.2-30.8-32.2-35.4-27.6-7.5-77.3-14.1-94.5-33.6-10.6-12-13.3-27.7-4.6-41.4 22.9-36 96.5-33.8 132.5-16.8-1.2 7.1-4.6 13.2-9.3 17.7-28-10.2-57.9-13.8-84.9-2.4-8 3.4-13.1 10.5-13.2 17.5-.4 31 72.8 25.3 115 51.9 17.4 11 26.4 32.9 17.7 52.6Zm-1162.6 19.4c-42.5 15.9-123.6 15-144.6-33.5 6.5-2.8 16.3-8.8 23.5-7.1 7 7.6 12 16.1 22 20.2 25 10.3 52.4 12.9 78.3 5 10.1-3.1 16.9-9.6 18-18.9 1.2-10.4-4.1-19.7-14.2-24-41.7-17.8-110.2-17.1-119.7-56.4-4.3-17.9 6.9-35.1 24-42.7 35.6-15.8 76.3-14.4 112.8 0-.3 7.8-4 13.2-8.1 18.5-27.3-10.4-56.4-13.6-83.8-3.9-6.7 2.4-12.1 7.4-13.6 12-2.2 7.1-2.2 16.4 3.8 20.8 32.4 23.5 124.3 16.2 128 66.6 1.5 19.7-7.2 36-26.4 43.2Zm611.7-49.1c7.6 47.4 76.4 41.9 109.9 29.6 5.2 4.4 7.2 11.2 7.6 18.7-32.6 10.9-67.3 13.8-100 4.9-51.9-14-52.5-63.8-48.6-108 2.4-27.5 19.3-50.2 46.2-58.2 32.5-9.6 68.2-9.1 99.8 4.4 3.7 4.2-1.6 17-6.9 18.6-34.5-13.2-102.5-18-108.5 31.7-2.3 19.2-2.5 38.9.6 58.2Z"/><path fill="#060606" d="M755.3 1665.5H808v168.8h-52.7z"/><path fill="#5089f7" d="M1505.8 1665.9h30.2v168.5h-30.2zm224.3 0h30.1v168.3h-30.1z"/><path fill="#060606" d="M807.1 1644.2c-15.1 13.7-38.2 12.4-52.3-.8-5.9-5.5-6.5-13.5-4.7-21.8 1.2-5.5 6.5-12.1 14.2-15.2 15.5-6.3 41.2-4.2 47.2 13.5 2.6 7.7 2.8 17.9-4.3 24.4Zm739.3-1112.3-79.1 71.4c-13 11.8-25.5 22.2-39.4 32.8-15.9 12-44.9 35.3-62.9 22.3-15.9-11.4-5.2-43.2 2.6-59 34.9-70.1 78.7-133.4 125.1-196.1 2.6-3.5 43.8-64.6 31.2-66l-30.1 36.6c-21 25.5-56.2 66.3-88.3 75.3-19.5 5.5-35.9-5.6-40-25.3-6.7-32.4-6.8-65.3-8-98.7-8.1-.4-10.6 6.7-15.2 9.5-3.3 2-12-6.3-10.2-10 4.9-10.4 72.5-98 80.4-54.8 5.4 29.8-5.2 67.9 3.1 112.4.7 3.6 2.5 7.2 4.6 8.3 11.8 6 49.7-36.2 59.6-46.8 20.3-21.6 40.3-41.9 61.8-62.3 3.6-3.5 11.1-9 16-7.1 24.5 9.3 2.8 61.8-5.7 77.7-21.6 40.4-46.1 77.6-71.9 115.6-10.9 16.1-84.3 126.2-65.7 137.2 6.9 4.1 29.9-16.2 36.6-22.3l64.1-57.7c5.6-5 11.5-9.2 19.1-11.5 5.2 5.2 7.6 10.8 12.3 18.4Z"/></svg>