<?xml version="1.0" encoding="UTF-8"?>
<svg id="Layer_1" xmlns="http://www.w3.org/2000/svg" version="1.1" viewBox="0 0 2240 1888">
  <!-- Generator: Adobe Illustrator 30.1.0, SVG Export Plug-In . SVG Version: 2.1.1 Build 136)  -->
  <defs>
    <style>
      .st0 {
        fill: #060606;
      }

      .st1 {
        fill: #fff;
      }

      .st2 {
        fill: #5089f7;
      }
    </style>
  </defs>
  <g>
    <path class="st2" d="M1867.3,1148s206.5-141.4,206.5-141.4c4.2-3.4,4.8-7.6.1-10.7l-41.7-32.3c-2-1.6-5.7-1.8-7.9-.6-29.3,14.5-55.5,34.9-87.3,46-88.1-124-43.1-225.8,12.3-378,8.5-6.5,82,1.8,93.1.2,39.7-45.5,70.9-94.8,93.9-150.9-20.7-20.3-69.4-68-90-87.3-108.7-1.4-186.3,45.4-181.8,57.4,13.6,36.6,51.3,101.5,84.8,180.6,17.9,101.4,1.9,234.6-12.4,378l-69.8,139Z"/>
    <ellipse class="st2" cx="1105.5" cy="801.2" rx="867.9" ry="722.5"/>
  </g>
  <path class="st1" d="M982.4,478.2l18.1-6.5c-18.2,159.5-331.6,851.7,44.4,685.4,12.7-6.7,30.3-11.5,45.7-13.1-61.8,392.9,620.6,101.6,776.7,4,7.5-11.4,14.7-23,21.5-34.8,18.6-33.9,38.8-78.5,48.3-104.3-860.3,399.2-634.7-322.4,12.3-378-10.2-35.3-23.6-69.5-39.7-102.5-13.6-26.2-28.9-51.7-45-78.1,0,0,0,0,0-.1-252.6,135.5-493.4,309.2-672.9,534-10.9,14.1-56.2,66.7-74.4,39.9-27.9-35.9-33.6-71.4-21.1-116.2,20.8-76.4,48.9-221.4,78.5-293.4,31.6-121.5,271.1-410-17.4-339.2,28.6-22.9,58.9-42.7,91.7-59.6,7-3.6,15.3-3.9,20-12.7C898.7,31.9,414.7,453.5,238.9,761.6c-.9,13.1-1.3,26.3-1.3,39.6,0,93,21.1,181.9,59.6,263.6,218.8-184.4,463.8-406.7,685.2-586.6Z"/>
  <path class="st2" d="M377.3,876.1c39.5-1,90.6-50.7,121.7-78.2,109.5-101.7,241.6-227.5,361.1-317,44.5-31.2,94.9-53,138.9-85.1,8.3-5.6,17.3-10.9,25.4-16.6,1.2-1,1.6-1.9,1.1-2.5-.6-.8-2.8-1.2-5.5-1.6-156.7-17.6-335.4,39.8-456.1,127.6-101.6,81.6-206.6,215.5-218.1,345.5,2.6,16.6,16.5,27.4,31.4,27.9h.2Z"/>
  <g>
    <path class="st2" d="M1464.4,1666.3l-26.7,65.7-33.1,78.9-59.7-144.1c-9-2.7-17.7.5-26.5-1.7-28-6.8-55.9-3.2-80.7,10,.5-14.7-17.5-8.6-29.3-8.3v166.4c10.8,1.5,20.4,1.5,31.1,0l.4-134.9c27.3-25.3,66.2-9.7,71.9-12.9,2.4-1.3,1-6.1,5.8-7.8v-.2c0,0,69.6,156.7,69.6,156.7,12.6,0,22.7.8,34.3-.5l73.3-167.2c-11.2-1.1-20.2-.9-30.4,0Z"/>
    <path class="st2" d="M1163.1,1803s0,0,0,0c0,0,.1,0,.2-.1h-.2Z"/>
    <path class="st2" d="M1181.7,1700c-18.2-43.1-82.6-45.4-120.4-33-26.4,8.6-43.2,31.9-44.7,59.3-1,17.2-.9,33.8.2,50.7,1.8,27.8,18.9,49.3,46.2,56.3,33.9,8.7,69.6,5.4,102-8.1,3.1-1.2,7.9-4.2,8.4-6.9-1.7-5.7-4.9-10.4-10.3-15.3-27,14.4-55.8,18.4-84.5,12.6-23.3-4.7-36.2-25.8-31.8-49.1l131-3.1c6-.2,8.5-6.1,8.3-11.6,2.3-17.5,2.6-35.3-4.4-51.8ZM1157.4,1745.2l-111.5,2c0-10.2-.2-18.3.8-26.8,4.8-39.8,54.4-45.7,85.3-34.4,25.3,9.4,28.1,32.7,25.3,59.2h0Z"/>
    <path class="st2" d="M1827,1668.6c-23.7,8.4-38.1,28.9-41.4,53.3-2.8,20.4-2.7,40.7,1.3,60.9,11.2,56.3,79.4,62,124.9,50.5h0c31.5-8,50.1-34,50.8-65.3.4-18.6,1.9-36.2-2.2-54.2-13.5-59-89.9-60.6-133.5-45.2ZM1930.3,1784.3h0c-7.7,36.6-59.3,37.6-88.1,27.5-14.6-5.2-23.6-16.7-26-32.1-3.2-20.4-3.5-41.5-.2-61.8,6.5-41.1,66.5-44.4,98.9-26.6,24.9,13.7,20.1,70.7,15.4,93Z"/>
    <path class="st2" d="M2125.3,1756.7c-42.2-26.6-115.4-20.9-115-51.9,0-7,5.2-14.1,13.2-17.5,27-11.4,56.9-7.8,84.9,2.4,4.7-4.5,8.1-10.6,9.3-17.7-36-17-109.6-19.2-132.5,16.8-8.7,13.7-6,29.4,4.6,41.4,17.2,19.5,66.9,26.1,94.5,33.6,17,4.6,38.5,16.7,32.2,35.4-1.9,5.8-7.5,10.4-14.8,13.1-27.9,10.3-59.4,6.6-86.4-5.5-8.6-3.9-11.6-13-18.9-17.7-5.9-3.7-18.8,3.3-23.3,7.8,19.5,54.1,152.5,52.1,169.9,12.6v-.2c8.7-19.7-.3-41.6-17.7-52.6Z"/>
    <path class="st2" d="M878.8,1718.9c-6-4.4-6-13.7-3.8-20.8,1.5-4.6,6.9-9.6,13.6-12,27.4-9.7,56.5-6.5,83.8,3.9,4.1-5.3,7.8-10.7,8.1-18.5-36.5-14.4-77.2-15.8-112.8,0-17.1,7.6-28.3,24.8-24,42.7,9.5,39.3,78,38.6,119.7,56.4,10.1,4.3,15.4,13.6,14.2,24-1.1,9.3-7.9,15.8-18,18.9-25.9,7.9-53.3,5.3-78.3-5-10-4.1-15-12.6-22-20.2-7.2-1.7-17,4.3-23.5,7.1,21,48.5,102.1,49.4,144.6,33.5v-.2c19.2-7.2,27.9-23.5,26.4-43.2-3.7-50.4-95.6-43.1-128-66.6Z"/>
    <path class="st2" d="M1702,1809.4c-33.5,12.3-102.3,17.8-109.9-29.6h0c-3.1-19.4-2.9-39.1-.6-58.3,6-49.7,74-44.9,108.5-31.7,5.3-1.6,10.6-14.4,6.9-18.6-31.6-13.5-67.3-14-99.8-4.4-26.9,8-43.8,30.7-46.2,58.2-3.9,44.2-3.3,94,48.6,108,32.7,8.9,67.4,6,100-4.9-.4-7.5-2.4-14.3-7.6-18.7Z"/>
    <rect class="st2" x="1505.8" y="1665.9" width="30.2" height="168.5"/>
    <rect class="st2" x="1730.1" y="1665.9" width="30.1" height="168.3"/>
  </g>
  <g>
    <polygon class="st0" points="221 1833.6 220.9 1833.6 220.9 1833.7 221 1833.6"/>
    <path class="st0" d="M289.2,1665.3c-31.1-7.5-62.8-2-91.9,13.2-29.2-21.7-68.5-20.5-101.3-5.8-4,1.8-4.7-5.8-6.6-6.1-13.4-1.8-27.4-.1-40.9-.8-1.9,4.7.2,8,.2,12.4l.2,155.6,53,.2v-126.6c14.7-9.4,31-12.5,47-8.2,13.1,3.5,19.8,15.3,19.9,28.6l.8,106.2,51.3-.4v-111.5c0-5.4-2.8-9.7-1.9-14.8,15.8-9.9,34.8-13,52.5-6.8,10.4,3.6,15.9,14.6,15.9,25.8l.7,107.6h52.2l-1-111.3c-.3-29.9-22.1-50.5-50.1-57.3Z"/>
    <path class="st0" d="M536.2,1666.2h-50.7l-.5,118c-.1,16-37.1,24.8-58,11.5-8.8-5.6-11.8-17.4-11.8-27.5l-.5-102h-52v107.8c-.1,25,15.6,45.3,38.1,55.2,25.5,11.2,64.7,11.9,89.7-5.2,1.7,2.4,1.5,8,4.2,9.4l43.7.6c-.9-15.2-1.8-28.9-1.8-44.1l-.4-123.7Z"/>
    <polygon class="st0" points="536.2 1666 536.2 1666.2 536.4 1666.2 536.2 1666"/>
    <path class="st0" d="M701,1603.4l-51.5-.5-.2,184.8c0,20,10.7,36.3,28.3,43.3s37,7.7,55,1.3c0-10.7-.3-19.8-1.5-29.8-3.3-.9-6.4.3-9.9.8-11,1.6-20.1-5.7-20.1-18.1v-.2c0,0,.4-84.2.4-84.2l37.6-.8,4.1-34-41.6-.5-.6-62.1Z"/>
    <rect class="st0" x="567.1" y="1598.3" width="51.7" height="235.4"/>
    <rect class="st0" x="755.3" y="1665.5" width="52.7" height="168.8"/>
    <path class="st0" d="M807.1,1644.2h.1c7.1-6.4,6.9-16.6,4.3-24.3-6-17.7-31.7-19.8-47.2-13.5-7.7,3.1-13,9.7-14.2,15.2-1.8,8.3-1.2,16.3,4.7,21.8,14.1,13.2,37.2,14.5,52.3.8Z"/>
  </g>
  <path class="st0" d="M1546.4,531.9l-79.1,71.4c-13,11.8-25.5,22.2-39.4,32.8-15.9,12-44.9,35.3-62.9,22.3-15.9-11.4-5.2-43.2,2.6-59,34.9-70.1,78.7-133.4,125.1-196.1,2.6-3.5,43.8-64.6,31.2-66l-30.1,36.6c-21,25.5-56.2,66.3-88.3,75.3-19.5,5.5-35.9-5.6-40-25.3-6.7-32.4-6.8-65.3-8-98.7-8.1-.4-10.6,6.7-15.2,9.5-3.3,2-12-6.3-10.2-10,4.9-10.4,72.5-98,80.4-54.8,5.4,29.8-5.2,67.9,3.1,112.4.7,3.6,2.5,7.2,4.6,8.3,11.8,6,49.7-36.2,59.6-46.8,20.3-21.6,40.3-41.9,61.8-62.3,3.6-3.5,11.1-9,16-7.1,24.5,9.3,2.8,61.8-5.7,77.7-21.6,40.4-46.1,77.6-71.9,115.6-10.9,16.1-84.3,126.2-65.7,137.2,6.9,4.1,29.9-16.2,36.6-22.3l64.1-57.7c5.6-5,11.5-9.2,19.1-11.5,5.2,5.2,7.6,10.8,12.3,18.4h0Z"/>
</svg>