<svg xmlns="http://www.w3.org/2000/svg" width="167" height="80" fill="none" viewBox="0 0 167 80"><path fill="url(#paint0_linear_8620_16943)" d="M0 0h166.667v16.667H0z"/><path fill="url(#paint1_linear_8620_16943)" d="M165.608 36.48c-.939-1.238-2.365-1.918-4.016-1.918-3.088 0-5.675 1.76-8.649 5.882-2.531 3.51-5.681 7.877-7.987 7.877-.554 0-.965-.18-1.258-.553-.711-.903-.705-2.9.019-5.777.82-3.258 2.393-5.533 3.826-5.533 1.033 0 1.413.576 1.55.93a1.97 1.97 0 0 0-1.267.375c-.493.361-.764.922-.764 1.582 0 .59.207 1.12.584 1.494.365.362.858.553 1.424.553 1.439 0 2.445-1.188 2.445-2.89 0-1.082-.409-2.109-1.12-2.815-.784-.775-1.889-1.169-3.288-1.169-3.432 0-6.451 2.912-7.946 4.647-1.678 1.949-3.598 3.892-4.541 4.829.913-3.014.715-5.831-.575-7.651-.821-1.16-2.042-1.8-3.435-1.8-2.117 0-3.526.945-4.246 1.594l.354-1.309h-7.229l-.433 1.754h2.017c-.937 3.039-3.503 5.84-4.725 7.048a9.5 9.5 0 0 0 .382-2.048c.184-2.257-.404-4.298-1.616-5.6-.876-.941-2.005-1.438-3.268-1.438-3.614 0-6.753 2.174-9.327 6.461l-.778 1.33c-1.666 2.885-3.39 5.868-6.185 5.868-.768 0-1.387-.3-1.84-.893-1.152-1.507-1.212-4.904-.152-8.655 1.336-4.729 4.2-9.516 7.088-9.516.488 0 .89.186 1.23.567 1.109 1.242 1.167 4.22 1.023 5.389l-.028.223h2.107l2.204-7.939h-2.012l-.883 1.2c-.468-.555-1.934-1.912-5.08-1.912-3.587 0-9.889 3.816-12.019 12.009-1.032 3.968-.582 7.457 1.267 9.823 1.32 1.688 3.265 2.656 5.339 2.656 3.51 0 6.641-2.647 7.971-4.73.206 1.426 1.128 4.731 5.237 4.731 3.684 0 7.992-2.767 12.491-8.01l-3.481 13.52h5.208l1.715-6.968c.43.55 1.433 1.458 3.4 1.458 2.781 0 7.401-3.163 11.404-7.76-.552 2.294-.236 4.36.903 5.86.917 1.204 2.276 1.894 3.729 1.894 4.831 0 8.212-4.006 9.354-5.58-.023 1.46.454 2.836 1.359 3.86.982 1.11 2.399 1.72 3.991 1.72 4.236 0 7.712-2.642 8.978-6.997.882-3.032.863-5.94-.451-7.674m-53.013 6.755c-.701 2.709-2.286 5.872-4.444 5.872-.494 0-.855-.16-1.103-.486-.681-.894-.537-3.048.427-6.404 1.086-3.778 2.382-5.615 3.964-5.615.402 0 .722.161.981.492.781.998.853 3.524.175 6.14m16.893.09c-.832 3.521-2.253 5.541-3.896 5.541-1.284 0-1.866-1.198-1.98-1.465.12-.508.959-4.086 1.38-5.737.656-2.575 2.161-4.517 3.499-4.517.405 0 .735.154.977.458.483.605.879 2.087.02 5.72m33.25-.09c-.702 2.709-2.286 5.872-4.445 5.872-.493 0-.854-.16-1.103-.486-.68-.894-.536-3.048.428-6.404 1.085-3.778 2.381-5.615 3.964-5.615.401 0 .722.161.982.492.78.998.852 3.524.174 6.14m-82.392-3.278c.359.357.837.545 1.385.545.988 0 2.045-.618 2.045-2.354 0-.862-.324-1.64-.937-2.251-.893-.89-2.342-1.38-4.08-1.38-3.481 0-5.892 1.414-6.788 3.983-.666 1.908.357 3.945 2.88 5.736l.343.244c1.466 1.032 2.35 1.654 2.127 2.979-.179 1.052-1.32 1.807-2.717 1.795-2.137-.02-2.49-1.124-2.547-1.505.379-.17 1.337-.717 1.337-1.909 0-.566-.174-1.028-.518-1.37-.529-.526-1.266-.583-1.558-.583-.687 0-1.868.241-2.06 1.866-.026.231-.001.49.015.618-.16.232-.834 1.118-1.933 1.465a.9.9 0 0 1-.877-.2c-.349-.338-.412-.98-.178-1.811.237-.842 2.771-11.058 2.771-11.058h-5.147l-.391 1.398c-.397-.64-1.38-1.649-3.636-1.649-3.462 0-6.383 3.374-7.833 6.263-1.217 2.427-3.486 6.944-5.244 6.944a.51.51 0 0 1-.432-.196c-.19-.245-.422-.97.143-3.07.462-1.721 4.145-16.772 4.145-16.772h-8.785l-.474 2.061h3.3l-2.276 9.078c-1.679 6.569-4.61 8.9-6.61 8.9-.418 0-.715-.116-.905-.353-.536-.668-.18-2.25.08-3.407.364-1.614 1.523-6.267 1.738-7.132h3.639l.53-2.1h-3.617l1.253-5.102-1.975-.001-.06.09c-2.598 3.886-3.764 5.143-7.649 5.143h-.157l-.485 1.967h3.112l-.495 2.366c-1.717 6.45-5 9.128-6.378 9.128-.677 0-1.053-.113-1.258-.378-.34-.44-.296-1.407.138-3.045.786-2.958 4.112-14.803 4.513-16.232h3.316l.607-1.985-7.067-.016c-2.541 0-5.533.214-8.459 1.8-3.66 1.985-6.308 5.704-7.87 11.06-.01.038-.976 3.831-1.837 6.654-.909 2.978-3.307 3.3-4.297 3.3-.615 0-1.273-.299-1.803-.819L0 48.33v2.637l.242.077c.92.22 2.014.33 3.254.33 3.4 0 6.418-2.447 7.969-4.545 1.264-1.707 1.683-3.23 2.314-5.535l.14-.511h5.112c-.217.728-.86 2.899-1.421 4.957-.48 1.763-.357 3.136.368 4.08.713.93 1.994 1.4 3.808 1.4 1.837 0 5.156-.448 7.41-3.32.055.701.272 1.613.947 2.31.645.663 1.58 1 2.783 1 2.79 0 5.947-1.822 7.48-3.68.035.706.218 1.87.987 2.707.594.646 1.423.973 2.466.973 3.115 0 5.97-2.484 7.268-4.503.224 1.344 1.146 4.503 4.898 4.503 2.4 0 4.175-1.51 5.148-2.606.206.834.895 2.606 3.072 2.606 2.298 0 4.596-1.534 5.652-2.732.979 1.887 2.081 2.732 5.825 2.732 3.55 0 6.486-2.412 7-4.663.555-2.438-.792-3.427-3.026-5.068l-.27-.198-.462-.333c-1.102-.792-2.056-1.475-2.056-2.648 0-1.274 1.037-1.844 2.065-1.844.851 0 1.318.334 1.519.526-.255.24-.71.779-.71 1.558 0 .551.2 1.055.564 1.418m-60.727-1.319h-5.172c2.006-6.788 4.398-9.786 7.925-9.93zm42.257 3.712c-1.016 3.89-2.226 5.624-3.92 5.624-.377 0-.674-.148-.908-.453-.738-.964-.71-3.331.074-6.174 1.098-3.983 2.487-4.52 3.702-4.52.37 0 .685.162.934.483.682.88.726 2.717.118 5.04"/><path fill="url(#paint2_linear_8620_16943)" d="M0 63.333h166.667V80H0z"/><path fill="#006f8f" d="M0 16.25v.417h166.667v-.417zm143.172 29.599c.024-.94.206-2.094.545-3.442.82-3.257 2.393-5.532 3.826-5.532.674 0 1.07.245 1.302.514a2 2 0 0 1 .248-.001c-.137-.354-.517-.93-1.55-.93-1.433 0-3.006 2.275-3.826 5.533-.391 1.553-.573 2.85-.545 3.858"/><path fill="#006f8f" d="M147.071 39.556a2 2 0 0 0-.009.206c0 .59.207 1.12.584 1.494.365.362.858.553 1.424.553 1.439 0 2.445-1.188 2.445-2.89q0-.105-.005-.21c-.078 1.59-1.06 2.683-2.44 2.683-.566 0-1.059-.191-1.424-.553a2.03 2.03 0 0 1-.575-1.283m-12.289 4.277c.288-1.116.421-2.197.4-3.2-.022 1.06-.209 2.195-.562 3.361zm-8.27-7.825.317-1.179h-.112l-.353 1.308zm-7.455.574-.103.417h1.98q.074-.207.139-.417zm-2.554 6.893a10.2 10.2 0 0 0 .258-2.49q-.007.296-.031.597a9.5 9.5 0 0 1-.382 2.048zm-23.693.337c.023-1.412.273-3.04.754-4.74 1.336-4.729 4.2-9.516 7.088-9.516.488 0 .89.185 1.23.567.804.9 1.055 2.712 1.078 4.087.024-1.4-.19-3.51-1.078-4.504-.34-.381-.742-.567-1.23-.567-2.889 0-5.752 4.787-7.088 9.516-.528 1.87-.778 3.653-.753 5.157m10.065-8.494c-.014.16-.048.417-.048.417h2.156l2.204-7.939v-.418l-.116.418-2.088 7.522z"/><path fill="#006f8f" d="M86.653 42.864c-.038 2.39.573 4.472 1.808 6.051 1.32 1.689 3.265 2.657 5.339 2.657 3.51 0 6.641-2.647 7.971-4.73.206 1.426 1.128 4.73 5.237 4.73 3.643 0 7.895-2.704 12.338-7.833l.153-.593c-4.499 5.243-8.807 8.01-12.491 8.01-4.109 0-5.031-3.305-5.237-4.731-1.33 2.083-4.46 4.73-7.971 4.73-2.074 0-4.02-.968-5.339-2.656-1.163-1.488-1.772-3.42-1.808-5.635m29.365 13.803v.416h5.208l1.715-6.968c.43.55 1.433 1.458 3.4 1.458 2.754 0 7.312-3.102 11.287-7.628q.05-.273.117-.55c-4.003 4.598-8.623 7.761-11.404 7.761-1.967 0-2.97-.908-3.4-1.458l-1.715 6.969zm21.465-10.939c-.04 1.521.354 2.877 1.165 3.944.917 1.205 2.276 1.895 3.729 1.895 4.831 0 8.212-4.006 9.354-5.58-.023 1.46.454 2.836 1.359 3.86.982 1.11 2.399 1.72 3.991 1.72 4.236 0 7.712-2.642 8.978-6.998.416-1.43.632-2.831.606-4.096-.024 1.153-.235 2.405-.606 3.68-1.266 4.355-4.742 6.997-8.978 6.997-1.592 0-3.009-.61-3.991-1.72-.905-1.024-1.382-2.4-1.359-3.86-1.142 1.574-4.523 5.58-9.354 5.58-1.453 0-2.812-.69-3.729-1.895-.736-.968-1.129-2.175-1.165-3.527"/><path fill="#006f8f" d="M113.057 40.047c.026-1.306-.189-2.38-.637-2.953-.259-.33-.579-.492-.981-.492-1.582 0-2.878 1.837-3.964 5.615-.6 2.09-.883 3.715-.846 4.858q.05-1.667.846-4.442c1.086-3.777 2.382-5.614 3.964-5.614.402 0 .722.16.981.491.399.51.613 1.42.637 2.537m10.62 7.494a407 407 0 0 1 1.315-5.46c.656-2.576 2.161-4.518 3.499-4.518.405 0 .735.155.977.46.26.324.495.904.522 1.936.032-1.297-.229-1.987-.522-2.354a1.19 1.19 0 0 0-.977-.458c-1.338 0-2.843 1.942-3.499 4.517a406 406 0 0 0-1.369 5.694l-.011.043q.022.052.065.14m39.523-7.495c.026-1.306-.189-2.38-.636-2.952-.26-.33-.581-.492-.982-.492-1.583 0-2.879 1.837-3.964 5.615-.601 2.091-.883 3.716-.846 4.86q.05-1.667.846-4.444c1.085-3.777 2.381-5.614 3.964-5.614.401 0 .722.16.982.491.399.51.612 1.42.636 2.536m-82.854-.089c.359.357.837.545 1.385.545.946 0 1.954-.566 2.039-2.135q.006.097.006.198c0 1.736-1.057 2.354-2.045 2.354-.548 0-1.026-.188-1.385-.546a1.98 1.98 0 0 1-.565-1.417q0-.105.01-.202c.046.466.239.888.555 1.203m-.076-2.737c.08-.098.157-.178.222-.24-.2-.191-.668-.525-1.52-.525-1.027 0-2.064.57-2.064 1.844q0 .105.01.205c.109-1.126 1.086-1.633 2.055-1.633.622 0 1.039.179 1.297.35m2.57 8.517c.023.367-.015.77-.118 1.225-.514 2.251-3.45 4.663-7 4.663-3.744 0-4.846-.846-5.825-2.733-1.056 1.199-3.354 2.733-5.652 2.733-2.177 0-2.866-1.772-3.072-2.606-.973 1.096-2.748 2.605-5.148 2.605-3.752 0-4.674-3.158-4.898-4.502-1.299 2.018-4.153 4.503-7.268 4.503-1.043 0-1.872-.328-2.466-.973-.77-.837-.952-2-.987-2.707-1.533 1.858-4.69 3.68-7.48 3.68-1.202 0-2.139-.337-2.783-1-.675-.697-.892-1.61-.947-2.31-2.254 2.872-5.573 3.32-7.41 3.32-1.814 0-3.095-.47-3.808-1.4-.471-.614-.688-1.408-.65-2.373q.047 1.17.65 1.956c.713.93 1.994 1.4 3.808 1.4 1.837 0 5.156-.448 7.41-3.32.055.701.272 1.613.947 2.31.645.663 1.58 1 2.783 1 2.79 0 5.947-1.822 7.48-3.68.035.706.218 1.87.987 2.707.594.646 1.423.973 2.466.973 3.115 0 5.97-2.484 7.268-4.503.224 1.344 1.146 4.503 4.898 4.503 2.4 0 4.175-1.51 5.148-2.606.206.834.895 2.606 3.072 2.606 2.298 0 4.596-1.534 5.652-2.732.979 1.887 2.081 2.732 5.825 2.732 3.55 0 6.486-2.412 7-4.663q.098-.431.119-.808m-63.81-4.956-.123.416h-4.989l-.14.511c-.631 2.306-1.05 3.829-2.314 5.536-1.551 2.097-4.57 4.544-7.969 4.544-1.24 0-2.335-.11-3.254-.329L0 51.382v-.416l.242.077c.92.22 2.014.33 3.254.33 3.4 0 6.418-2.447 7.969-4.545 1.264-1.707 1.683-3.23 2.314-5.535l.14-.511zM31.636 27.1l-.48 1.568H27.84c-1.517 5.406-3.072 10.805-4.513 16.232-.275 1.038-.393 1.806-.357 2.342.028-.495.147-1.132.357-1.925 1.441-5.428 2.996-10.826 4.513-16.232h3.316l.607-1.985v-.417zm-.316 9.729-.087.416h-3.025v-.416zm7.112-6.783-1.151 4.687h.102l1.151-4.687v-.417zm2.466 4.692-.53 2.093h-3.639l-.024.099c-.268 1.075-1.362 5.474-1.714 7.035l-.001.005c-.176.783-.395 1.76-.352 2.515.032-.676.207-1.453.352-2.098l.001-.006c.352-1.558 1.443-5.947 1.712-7.029l.001-.003v-.003l.025-.098h3.639l.53-2.099zm3.804-4.992-.105.417h-3.195v-.417zm5.857-1.645c-.597 2.439-3.627 14.805-4.043 16.356-.306 1.139-.378 1.873-.35 2.346.024-.459.122-1.082.35-1.929.462-1.722 4.145-16.773 4.145-16.773v-.417z"/><path fill="#006f8f" d="M66.285 45.825c.208-.74 2.19-8.715 2.668-10.64l.103-.42v.42S66.522 45.4 66.284 46.241a3.7 3.7 0 0 0-.128.676c-.031-.307.011-.676.128-1.093m7.101.214a3 3 0 0 1 .01.219c0 1.09-.803 1.64-1.23 1.857a1.4 1.4 0 0 1-.108-.365c.357-.16 1.23-.656 1.328-1.711m1.809-1.558c1.4.985 2.268 1.597 2.15 2.803-.102-.944-.922-1.522-2.15-2.387l-.344-.243c-2.11-1.498-3.17-3.167-3.071-4.79.09 1.49 1.142 3.004 3.071 4.373zm-60.622-5.842h-.125c2.006-6.788 4.398-9.786 7.925-9.93l-.117.423c-3.391.2-5.724 3.087-7.683 9.507M62.3 39.665c.029-1.038-.153-1.853-.542-2.355q-.376-.481-.934-.483c-1.215 0-2.604.537-3.702 4.52-.431 1.563-.634 2.982-.606 4.103.024-1.047.227-2.311.606-3.686 1.098-3.984 2.487-4.52 3.702-4.52.37 0 .685.162.934.482.336.434.517 1.099.542 1.939M0 79.583V80h166.667v-.417z"/><path fill="#b8e0ec" d="M0 0h166.667v.417H0zm165.608 36.48c-.939-1.238-2.365-1.918-4.016-1.918-3.088 0-5.675 1.76-8.649 5.882-2.531 3.51-5.681 7.877-7.987 7.877-.554 0-.965-.18-1.258-.553-.327-.415-.502-1.062-.526-1.92-.027 1.067.148 1.856.526 2.337.293.372.704.553 1.258.553 2.306 0 5.456-4.367 7.987-7.877 2.974-4.123 5.561-5.883 8.649-5.883 1.651 0 3.077.68 4.016 1.918.695.916 1.027 2.16 1.057 3.577.031-1.59-.295-2.989-1.057-3.994m-28.125 9.249a9.2 9.2 0 0 1 .262-1.916l.084-.416h-.083c-.019.021-.118.55-.118.55a8.7 8.7 0 0 0-.145 1.782m-21.358 10.939 3.374-13.105c.084-.229.029-.448.001-.416l-.154.593-3.328 12.928zM86.653 42.864c.02-1.188.198-2.453.541-3.771 2.13-8.193 8.432-12.01 12.02-12.01 3.145 0 4.611 1.358 5.079 1.912l.883-1.199h1.896l.116-.417h-2.012l-.883 1.2c-.468-.555-1.934-1.912-5.08-1.912-3.587 0-9.889 3.816-12.019 12.009-.383 1.473-.562 2.88-.54 4.188m6.156.948c-.027 1.702.277 3.09.906 3.915.453.593 1.072.893 1.84.893 2.796 0 4.519-2.984 6.185-5.87l.778-1.328c2.574-4.288 5.713-6.461 9.327-6.461 1.263 0 2.392.497 3.268 1.438 1.027 1.104 1.606 2.739 1.647 4.586.043-2.017-.543-3.817-1.647-5.003-.876-.941-2.005-1.438-3.268-1.438-3.614 0-6.753 2.174-9.327 6.461l-.778 1.33c-1.666 2.885-3.39 5.868-6.185 5.868-.768 0-1.387-.3-1.84-.893-.577-.756-.88-1.986-.905-3.498m23.692-.337-.157.154c-.029.106-.096.33.002.418 1.222-1.21 3.788-4.01 4.725-7.048l.135-.416h-.137l-.137.416c-.987 2.753-3.218 5.255-4.431 6.476m2.656-6.893.33-1.337h7.117l.112-.417h-7.229l-.433 1.754zm7.353-.574-.15.13-.125.415c.72-.648 2.256-1.592 4.373-1.592 1.393 0 2.614.638 3.435 1.799.725 1.023 1.105 2.36 1.137 3.872.035-1.682-.346-3.173-1.137-4.29-.821-1.16-2.042-1.798-3.435-1.798-1.981 0-3.342.827-4.098 1.464m8.27 7.825-.161.163c-.03.109-.042.415-.042.415.943-.938 2.904-2.88 4.582-4.83 1.495-1.735 4.514-4.646 7.946-4.646 1.399 0 2.504.394 3.288 1.169.665.66 1.066 1.601 1.115 2.606q.005-.103.005-.208c0-1.082-.409-2.109-1.12-2.815-.784-.775-1.889-1.169-3.288-1.169-3.432 0-6.451 2.912-7.946 4.647-1.587 1.843-3.39 3.68-4.379 4.668"/><path fill="#b8e0ec" d="M147.071 39.556c.05-.57.314-1.053.755-1.376a1.97 1.97 0 0 1 1.267-.375c.074-.097.05-.335 0-.416l-.124-.006-.124.006a2 2 0 0 0-1.019.374c-.493.361-.764.922-.764 1.582q0 .107.009.21m-34.476 3.68c-.701 2.709-2.286 5.872-4.444 5.872-.494 0-.855-.16-1.103-.486q-.385-.506-.419-1.546-.04 1.359.419 1.963c.248.326.609.486 1.103.486 2.158 0 3.743-3.164 4.444-5.873.332-1.279.484-2.536.462-3.604-.02.971-.173 2.071-.462 3.188m16.893.09c-.832 3.521-2.253 5.541-3.896 5.541-1.123 0-1.709-.917-1.915-1.325l-.064-.141s-.071.308-.001.418c.071.11.696 1.465 1.98 1.465 1.643 0 3.064-2.02 3.896-5.541.397-1.678.526-2.897.502-3.783-.02.841-.164 1.937-.502 3.366m33.25-.09c-.702 2.709-2.286 5.872-4.445 5.872-.493 0-.854-.16-1.103-.486q-.385-.506-.418-1.545-.04 1.358.418 1.962c.249.326.61.486 1.103.486 2.159 0 3.743-3.164 4.445-5.873.332-1.28.484-2.537.462-3.605-.02.972-.173 2.072-.462 3.189M83.77 38.367a3.1 3.1 0 0 0-.931-2.053c-.893-.891-2.342-1.381-4.08-1.381-3.481 0-5.892 1.415-6.788 3.983a3.5 3.5 0 0 0-.192.947 3.5 3.5 0 0 1 .192-1.363c.896-2.569 3.307-3.984 6.787-3.984 1.739 0 3.188.49 4.08 1.38.614.611.938 1.39.938 2.252q0 .113-.006.219"/><path fill="#b8e0ec" d="M79.792 38.754c.069-.67.468-1.137.7-1.357l.133-.105s0-.215-.133-.313l-.111.108-.111.134a2.1 2.1 0 0 0-.478 1.533m-2.874-.25q-.01.102-.01.211c0 1.171.95 1.854 2.05 2.644l.006.005.462.332.27.2h.002c1.817 1.335 3.047 2.238 3.143 3.842.105-1.873-1.175-2.813-3.143-4.258l-.002-.002-.27-.198-.462-.333-.006-.005c-1.034-.742-1.936-1.39-2.04-2.438M17.61 45.74q-.322 1.18-.283 2.122.03-.78.283-1.706c.562-2.058 1.414-4.644 1.632-5.373h-.209c-.283.957-.945 3.205-1.423 4.956M0 48.329v.416l.43.334c.53.52 1.188.818 1.803.818.99 0 3.388-.321 4.297-3.3.834-2.735 1.768-6.382 1.834-6.64l.003-.014c1.562-5.355 4.21-9.074 7.87-11.06 2.926-1.586 5.918-1.8 8.459-1.8l6.94.017.127-.417-7.067-.016c-2.541 0-5.533.214-8.459 1.8-3.66 1.985-6.308 5.704-7.87 11.06l-.003.014c-.066.257-1 3.905-1.834 6.64-.909 2.978-3.307 3.3-4.297 3.3-.615 0-1.273-.299-1.803-.819zm23.189-.384q-.187-.241-.218-.703c-.03.526.043.893.218 1.12.205.264.353.388 1.258.378 1.378 0 4.66-2.678 6.378-9.128-.002.008.498-2.137.633-2.783l-.138-.001-.495 2.367c-1.717 6.45-5 9.128-6.378 9.128-.677 0-1.053-.113-1.258-.378m5.122-11.116.382-1.55h.157c3.885 0 5.051-1.257 7.65-5.144l.06-.09 1.872.001.102-.416-1.975-.001-.06.09c-2.598 3.886-3.764 5.143-7.649 5.143h-.157l-.485 1.967zm8.965-2.096-.102.416h3.619l.105-.416zm-2.638 11.752c.02.36.1.67.273.886.19.237.487.352.906.352 2 0 4.93-2.33 6.609-8.899l2.274-9.078h.104l-2.378 9.495c-1.679 6.568-4.61 8.899-6.61 8.899-.418 0-.715-.115-.905-.352-.236-.295-.3-.767-.273-1.303m6.86-16.739.378-1.645h8.683l.102-.416h-8.785l-.474 2.061zm4.668 17.057c.025.399.12.612.207.724a.51.51 0 0 0 .432.196c1.758 0 4.027-4.517 5.244-6.944 1.45-2.889 4.37-6.263 7.833-6.263 2.256 0 3.239 1.01 3.636 1.649l.39-1.398h5.148l-.103.417h-5.044l-.391 1.398c-.397-.64-1.38-1.65-3.636-1.65-3.462 0-6.383 3.375-7.833 6.263-1.217 2.428-3.486 6.945-5.244 6.945a.51.51 0 0 1-.432-.196c-.113-.147-.241-.464-.207-1.141m19.99.115c.03.306.133.55.307.717.259.25.627.28.877.201 1.047-.33 1.709-1.151 1.907-1.428l.026-.037c0 .42-.086.571-.388.886-.333.348-.855.778-1.545.996a.9.9 0 0 1-.877-.201c-.247-.239-.35-.63-.307-1.134m3.1-.718.003-.03c.191-1.625 1.372-1.867 2.059-1.867.293 0 1.029.057 1.558.583.299.298.47.685.51 1.152q.008-.096.008-.198c0-.566-.174-1.028-.518-1.37-.529-.526-1.266-.583-1.558-.583-.687 0-1.868.241-2.06 1.866a2.4 2.4 0 0 0-.002.447m5.348 3.054c-1.635-.015-2.225-.665-2.438-1.14 0 0-.083-.197-.108-.364 0 .033-.039.167-.001.416.058.38.41 1.485 2.547 1.505 1.397.012 2.538-.743 2.717-1.796q.053-.32.023-.592a3 3 0 0 1-.023.176c-.179 1.052-1.32 1.807-2.717 1.795"/><path fill="#b8e0ec" d="M14.45 38.638h5.169l2.752-9.93c.039-.002.09.002.129 0l-2.881 10.347h-5.294zm47.426 3.712c-1.016 3.89-2.226 5.624-3.92 5.624-.377 0-.674-.148-.908-.453-.333-.434-.51-1.153-.532-2.07-.026 1.117.15 1.989.532 2.486.234.305.53.453.908.453 1.694 0 2.904-1.734 3.92-5.623.309-1.18.45-2.235.424-3.102-.022.78-.163 1.688-.424 2.685m104.791 20.983H0v.417h166.667z"/><defs><linearGradient id="paint0_linear_8620_16943" x1="0" x2="166.667" y1="16.667" y2="63.333" gradientUnits="userSpaceOnUse"><stop offset=".04" stop-color="#0092bc"/><stop offset=".4" stop-color="#5cb9d4"/><stop offset=".72" stop-color="#0092bc"/><stop offset=".96" stop-color="#006f8f"/></linearGradient><linearGradient id="paint1_linear_8620_16943" x1="0" x2="166.667" y1="16.667" y2="63.333" gradientUnits="userSpaceOnUse"><stop offset=".04" stop-color="#0092bc"/><stop offset=".4" stop-color="#5cb9d4"/><stop offset=".72" stop-color="#0092bc"/><stop offset=".96" stop-color="#006f8f"/></linearGradient><linearGradient id="paint2_linear_8620_16943" x1="0" x2="166.667" y1="16.667" y2="63.333" gradientUnits="userSpaceOnUse"><stop offset=".04" stop-color="#0092bc"/><stop offset=".4" stop-color="#5cb9d4"/><stop offset=".72" stop-color="#0092bc"/><stop offset=".96" stop-color="#006f8f"/></linearGradient></defs></svg>