<svg xmlns="http://www.w3.org/2000/svg" id="svg2" width="300" height="121" viewBox="0 0 709 285"><g id="#fefefeff"><path id="path5" d="M322.07 14.97c5.99-.19 11.96-1.05 17.97-.94 18 .11 36-.27 53.99.32 6.94 1.01 13.99.37 20.92 1.4 13.46.29 26.79 2.3 40.19 3.44 35.04 4.68 70.06 10.58 103.99 20.71 30.7 8.83 61.29 19.53 88.48 36.6 10.28 6.71 20.58 13.72 28.7 23.03 10 10.52 17.13 24.67 16.68 39.44.34 7.29-2.23 14.31-5.09 20.89-4.8 10.81-12.6 19.92-21.19 27.91-10.84 9.44-23 17.19-35.36 24.47-27.12 14.42-56.51 24.09-86.37 31.01-7.67 2.41-15.64 3.6-23.5 5.16-19.08 3.98-38.33 6.94-57.59 9.88-17.8 3.09-35.85 4.06-53.81 5.63-4.37.1-8.76-.03-13.11.46-6.96.89-13.99.47-20.99.58-14.32.44-28.65.23-42.98.2-9.64-.6-19.35.42-28.95-.93-56.12-2.62-112.08-10.99-166.3-25.89-24.5-7.6-48.74-16.49-71.18-29.05-11.5-7.12-22.6-15.06-31.81-25.04-6.3-6.83-12.77-13.9-16.55-22.5-5.19-13.66-4.76-29.61 1.8-42.74 2.48-4.99 6.28-9.11 9.6-13.53 15.6-18.5 35.54-33.11 57.34-43.5 11.22-5.68 23.15-9.74 34.89-14.2 16.53-5.17 32.91-11.14 50.04-14.04 34.29-7.55 69.1-12.49 104.03-15.73 15.37-1.21 30.71-3.15 46.16-3.04m-32.99 11.66c-22.8.79-45.53 2.63-68.22 4.92-40.77 5.02-81.63 13.16-119.43 29.71-3 1.34-6 2.68-9 4-17.48 7.85-34.01 18.05-48.44 30.68-3.68 3.71-7.26 7.53-10.71 11.46-6.98 8.97-13.88 18.93-15.19 30.52-1.13 14.09 4.66 28.38 14.62 38.3 18.23 19.64 42.56 32.21 67.25 41.78 26.9 9.33 54.29 17.5 82.37 22.41 36.84 7.22 74.23 11.46 111.71 12.97 8.26 1.06 16.62.3 24.9 1.21 5.32.45 10.68.48 16.02.45 13.03-.05 26.06.18 39.08-.37 9.63-.77 19.3-.6 28.96-.65 31.29-2.46 62.62-4.73 93.81-8.49 8.1-1.17 16.14-2.74 24.28-3.66 23.41-3.69 46.47-9.53 68.99-16.88 19.67-6.81 39.47-14.35 56.4-26.72 15.09-10.22 29.3-22.96 37.33-39.62 4.55-9 6.34-19.33 4.85-29.31-2.55-12.92-10.69-24.12-20.59-32.5-11.13-9.72-24.01-17.24-37.28-23.63-14.68-6.35-29.61-12.1-44.77-17.18-35.75-11.6-72.73-18.99-109.94-24-15.05-1.43-30.02-3.86-45.14-4.35-6.89-1.17-13.9-.37-20.83-1.15-7.68-.92-15.46-.18-23.14-1.22-22.67-.51-45.37-.58-68.04 0-9.92 1.11-19.93.19-29.85 1.32" style="opacity:1;fill:#fefefe"/><path id="path7" d="M186.88 78.83c7.97-1.16 16.75-1.06 23.7 3.55 3.5 2.35 6.81 6.79 4.77 11.14-2.2 7.32-12.41 9.96-18.12 5.23-3.01-3.1-2.61-7.65-.25-10.98-.32-.45-.94-1.35-1.26-1.79-13.62-2.42-27.97 1.56-38.79 10.08-5.95 4.89-11.87 10.08-16.08 16.6-7.58 11.87-13.5 25.86-11.68 40.22 1.32 7.01 4.59 14.44 11.21 17.89 8.13 4.79 18.35 4.02 26.8.49 7.21-2.28 13.46-6.55 19.87-10.42.73.96 1.36 2 2.04 3.01-2.15 5.17-7.79 7.28-12.15 10.2-13.23 6.73-29.07 9.99-43.53 5.47-10.77-2.77-19.31-12.03-22.15-22.66-1.76-5.41-1.55-11.19-1.36-16.8 0-4.23 1.4-8.28 2.95-12.17 4.44-10.93 11.95-20.47 21.14-27.81 7.93-5.75 16.21-11.22 25.36-14.83 8.9-3.1 18.03-6.19 27.53-6.42" style="opacity:1;fill:#fefefe"/><path id="path9" d="M452.47 81.58c3.14-1.62 6.29.59 8.53 2.68 1.54 5.12.22 11.24-4.18 14.56-2.5 2.61-6.3 2.38-9.6 2.28-6.4-5.75-2.61-17.29 5.25-19.52" style="opacity:1;fill:#fefefe"/><path id="path11" d="M318.72 136.76c7.66-10.21 12.77-24.25 25.97-28.57 1.75.39 3.51.72 5.29 1.02 3.16 3.14 5.2 7.51 4.75 12.03-.38 1.14-.73 2.29-1.04 3.46-2.33 3.06-5.76 5.29-9.72 5.23-1.61-.89-3.18-1.83-4.65-2.93-.32-2.23-.86-4.43-1.61-6.56-3.96 1.96-6.96 5.3-9.19 9.05-6.94 12.67-14.17 25.3-18.91 39.01-1.41 3.57-2 7.61-4.72 10.51-3.89.22-7.82.31-11.7-.19-.76-.88-1.31-1.9-1.93-2.87 5.57-18.01 12.06-35.75 16.52-54.09l-.16-2.6c-5.55 2.66-9.01 7.98-13.12 12.32-.83 1.14-2.21 1.44-3.52 1.55-.61-2.01.56-3.87 1.44-5.59 5.01-6.65 10.66-13.16 18.12-17.14 2.75-1.47 5.98-1.74 9.03-1.22 3.65 2.89 3.95 8.2 2.83 12.39-.85 5.16-2.57 10.11-3.68 15.19" style="opacity:1;fill:#fefefe"/><path id="path13" d="M406.88 111.84c3.84-2.42 9.17-5.4 13.21-1.66 3.97 4.27 4.98 11.57 1.33 16.38-2.62 2.83-7 4.55-10.66 2.78-2.95-2.15-1.8-6.69-4.75-8.89-5.48 4.61-8.96 11-12.78 16.94-2.87 6.07-6.56 11.72-9.03 17.98-3.23 6.66-5.63 13.66-8.24 20.58-.36 1.18-1.32 1.99-2.04 2.94-3.83.74-7.89 1.45-11.59-.2-2.58-1.67-.82-5.25-.34-7.63 5.11-15.7 9.93-31.5 14.78-47.28.39-1.37-.04-2.8-.08-4.18-6.11 2.56-9.19 8.68-13.65 13.15-.85.11-2.54.35-3.38.47-.23-5.22 4.43-8.41 7.13-12.3 5.52-6.73 13.92-13.67 23.21-10.81 5.24 8.71-.64 18.5-2.12 27.41 5.95-8.8 10.3-19.1 19-25.68" style="opacity:1;fill:#fefefe"/><path id="path15" d="M491.56 113.54c8.28-5.13 18.41-6.6 27.95-5.08 3.94.86 7.98 2.21 10.93 5.09 1.52 1.72 2.43 3.86 3.43 5.9 2.5 6.99-1.7 14.26-6.89 18.79-11.83 9.63-27.7 10.66-42 13.98-1.77 4.9-2.1 11.25 1.62 15.36 4.75 4.73 12.32 6.03 18.5 3.57 6.6-2.09 12.09-6.37 17.56-10.43 1.04-1.36 2.32-.1 3.47.28-2.38 5.95-7.47 10.15-12.6 13.69-5.94 4.54-13.21 6.85-20.47 8.17-9.1.89-19.45-2.83-23.74-11.37-3.13-6.58-4.05-14.23-2.54-21.36 1.89-15.19 11.36-29.21 24.78-36.59m13.9.73c-11.31 6.14-14.85 19.55-18.77 30.85 5.54.01 11.06-1.02 16.24-2.98 6.1-2.82 12.36-7.2 14-14.13 1.24-4.2 1.25-9.05-1.41-12.71-2.73-2.38-6.96-3.25-10.06-1.03" style="opacity:1;fill:#fefefe"/><path id="path17" d="M239.97 110.05c6.49-1.81 14.56-2.09 19.33 3.53.99-1.62 2-3.24 3.07-4.83 4.52.05 9.06-.03 13.57.43-5.1 16.2-10.12 32.43-15.22 48.63-1.21 4.01-2.95 7.93-3.06 12.18 7.74-1.24 9.62-10.4 16.47-13.22 1.65 4.52-2.32 8.25-4.93 11.42-5.87 5.79-12.46 12.5-21.18 13.01-3.59.53-6.63-2.44-7.67-5.62-.66-3.6.06-7.28-.03-10.91-6.19 6.22-12.17 13.27-20.78 16.12-3.39.92-6.86.87-10.27.11-5.17-2.71-8.59-8.1-9.23-13.86-1.52-12.95 3.96-25.62 11.14-36.1 7.14-9.66 17.13-17.54 28.79-20.89m3.39 6.02c-15.35 10.59-25.06 28.69-26.41 47.18 1.78 4.83 7.74 6.52 12.05 3.89 12.01-7.25 17.74-20.81 23.05-33.16 1.85-4.97 5.07-9.81 4.02-15.36-.4-.65-1.2-1.93-1.6-2.58-3.48-1.98-7.58-1.59-11.11.03" style="opacity:1;fill:#fefefe"/><path id="path19" d="M588.19 113.25c3.33-2.83 7.65-4.26 11.98-4.42 3.51 2.66 6.63 6.53 5.86 11.24.66 5.46-4.2 9.29-8.87 10.78-1.77-.9-3.81-1.43-5.3-2.75-1.15-2.4-1.63-5.06-2.63-7.52-6.93 4.29-10.07 12.08-13.97 18.84-6.01 11.29-12.31 22.58-15.93 34.92-.47 2.26-1.74 4.18-3.44 5.7-4.23-.34-8.97.68-12.67-1.92 4.35-17.95 11.59-35.06 15.6-53.1.4-1.72.44-3.49.38-5.24-5.97 2.23-8.46 8.56-13.02 12.51-.93 1.06-2.47.78-3.71 1.05l-.48-2.61c5.95-7.79 11.93-16.43 21.35-20.27 2.81-.74 5.77-.38 8.66-.48 1.54 2.11 2.43 4.6 2.68 7.19-.52 7.26-3.03 14.12-4.47 21.19 5.76-8.51 9.81-18.52 17.98-25.11" style="opacity:1;fill:#fefefe"/><path id="path21" d="M438.28 114.48c.78-1.7 1.15-4.63 3.64-4.35 4.1-.06 8.49-.8 12.29 1.2-2.61 10.54-6.1 20.83-9.51 31.13-2.7 7.49-5.16 15.07-7.52 22.67-.64 2.06-.39 4.24-.33 6.36 7.51-1.88 11.21-9.58 17.88-12.97.21 2.06.41 4.28-1 6-4.93 6.84-11.78 12.25-19.37 15.88-3.82 1.8-8.08 1.69-12.2 1.55-3.42-4.17-3.99-9.98-2.04-14.92 6.03-17.52 12.1-35.03 18.16-52.55" style="opacity:1;fill:#fefefe"/></g><g id="#020298ff"><path id="path24" d="M167.03 21.27C217.07 8.78 268.61 3.51 320 .96c20.01.15 40.03-.36 60.03.34 9.03.92 18.12.28 27.15 1.08 4.93.68 9.92.47 14.88.79 7.53.72 15.04 1.52 22.57 2.2 17.27 2.5 34.72 3.77 51.86 7.15 19.61 3.35 39.13 7.39 58.36 12.5 20.48 5.85 40.79 12.39 60.34 20.87 16.66 7.49 33.44 15.12 48.33 25.83 11.76 8.97 23.38 18.57 31.81 30.87 8.01 11.37 13.05 25.29 11.87 39.34-1.24 17.58-9.63 34.03-20.94 47.29-10.68 11.81-23.09 22.13-36.9 30.09-17.33 10.42-35.97 18.63-55.26 24.67-22.63 7.71-45.92 13.27-69.15 18.79-33.62 7.25-67.67 12.73-101.97 15.35-15.63 1.61-31.35 1.69-47 2.9-24.24-.08-48.52.99-72.73-.83-6.1-.04-12.18-.52-18.25-1.05-9.09.07-18.03-1.82-27.08-2.32-51.66-5.41-103.31-15.01-151.86-33.96-17.78-6.82-34.88-15.28-51.57-24.4-7.75-5.07-14.92-10.98-22.04-16.88-15.24-13.4-29.41-30.14-32.45-50.9v-14.03c.74-4.04 1.3-8.14 2.69-12.02 6.5-17.96 18.63-33.53 33.42-45.45 22.2-18.65 49.38-29.75 75.75-41.08 18.09-6.51 36.55-12 55.17-16.83m155.04-6.3c-15.45-.11-30.79 1.83-46.16 3.04-34.93 3.24-69.74 8.18-104.03 15.73-17.13 2.9-33.51 8.87-50.04 14.04-11.74 4.46-23.67 8.52-34.89 14.2-21.8 10.39-41.74 25-57.34 43.5-3.32 4.42-7.12 8.54-9.6 13.53-6.56 13.13-6.99 29.08-1.8 42.74 3.78 8.6 10.25 15.67 16.55 22.5 9.21 9.98 20.31 17.92 31.81 25.04 22.44 12.56 46.68 21.45 71.18 29.05 54.22 14.9 110.18 23.27 166.3 25.89 9.6 1.35 19.31.33 28.95.93 14.33.03 28.66.24 42.98-.2 7-.11 14.03.31 20.99-.58 4.35-.49 8.74-.36 13.11-.46 17.96-1.57 36.01-2.54 53.81-5.63 19.26-2.94 38.51-5.9 57.59-9.88 7.86-1.56 15.83-2.75 23.5-5.16 29.86-6.92 59.25-16.59 86.37-31.01 12.36-7.28 24.52-15.03 35.36-24.47 8.59-7.99 16.39-17.1 21.19-27.91 2.86-6.58 5.43-13.6 5.09-20.89.45-14.77-6.68-28.92-16.68-39.44-8.12-9.31-18.42-16.32-28.7-23.03-27.19-17.07-57.78-27.77-88.48-36.6-33.93-10.13-68.95-16.03-103.99-20.71-13.4-1.14-26.73-3.15-40.19-3.44-6.93-1.03-13.98-.39-20.92-1.4-17.99-.59-35.99-.21-53.99-.32-6.01-.11-11.98.75-17.97.94" style="opacity:1;fill:#020298"/><path id="path26" d="M289.08 26.63c9.92-1.13 19.93-.21 29.85-1.32 22.67-.58 45.37-.51 68.04 0 7.68 1.04 15.46.3 23.14 1.22 6.93.78 13.94-.02 20.83 1.15 15.12.49 30.09 2.92 45.14 4.35 37.21 5.01 74.19 12.4 109.94 24 15.16 5.08 30.09 10.83 44.77 17.18 13.27 6.39 26.15 13.91 37.28 23.63 9.9 8.38 18.04 19.58 20.59 32.5 1.49 9.98-.3 20.31-4.85 29.31-8.03 16.66-22.24 29.4-37.33 39.62-16.93 12.37-36.73 19.91-56.4 26.72-22.52 7.35-45.58 13.19-68.99 16.88-8.14.92-16.18 2.49-24.28 3.66-31.19 3.76-62.52 6.03-93.81 8.49-9.66.05-19.33-.12-28.96.65-13.02.55-26.05.32-39.08.37-5.34.03-10.7 0-16.02-.45-8.28-.91-16.64-.15-24.9-1.21-37.48-1.51-74.87-5.75-111.71-12.97-28.08-4.91-55.47-13.08-82.37-22.41-24.69-9.57-49.02-22.14-67.25-41.78-9.96-9.92-15.75-24.21-14.62-38.3 1.31-11.59 8.21-21.55 15.19-30.52 3.45-3.93 7.03-7.75 10.71-11.46 14.43-12.63 30.96-22.83 48.44-30.68 3-1.32 6-2.66 9-4 37.8-16.55 78.66-24.69 119.43-29.71 22.69-2.29 45.42-4.13 68.22-4.92m-102.2 52.2c-9.5.23-18.63 3.32-27.53 6.42-9.15 3.61-17.43 9.08-25.36 14.83-9.19 7.34-16.7 16.88-21.14 27.81-1.55 3.89-2.95 7.94-2.95 12.17-.19 5.61-.4 11.39 1.36 16.8 2.84 10.63 11.38 19.89 22.15 22.66 14.46 4.52 30.3 1.26 43.53-5.47 4.36-2.92 10-5.03 12.15-10.2-.68-1.01-1.31-2.05-2.04-3.01-6.41 3.87-12.66 8.14-19.87 10.42-8.45 3.53-18.67 4.3-26.8-.49-6.62-3.45-9.89-10.88-11.21-17.89-1.82-14.36 4.1-28.35 11.68-40.22 4.21-6.52 10.13-11.71 16.08-16.6 10.82-8.52 25.17-12.5 38.79-10.08.32.44.94 1.34 1.26 1.79-2.36 3.33-2.76 7.88.25 10.98 5.71 4.73 15.92 2.09 18.12-5.23 2.04-4.35-1.27-8.79-4.77-11.14-6.95-4.61-15.73-4.71-23.7-3.55m265.59 2.75c-7.86 2.23-11.65 13.77-5.25 19.52 3.3.1 7.1.33 9.6-2.28 4.4-3.32 5.72-9.44 4.18-14.56-2.24-2.09-5.39-4.3-8.53-2.68m-133.75 55.18c1.11-5.08 2.83-10.03 3.68-15.19 1.12-4.19.82-9.5-2.83-12.39-3.05-.52-6.28-.25-9.03 1.22-7.46 3.98-13.11 10.49-18.12 17.14-.88 1.72-2.05 3.58-1.44 5.59 1.31-.11 2.69-.41 3.52-1.55 4.11-4.34 7.57-9.66 13.12-12.32l.16 2.6c-4.46 18.34-10.95 36.08-16.52 54.09.62.97 1.17 1.99 1.93 2.87 3.88.5 7.81.41 11.7.19 2.72-2.9 3.31-6.94 4.72-10.51 4.74-13.71 11.97-26.34 18.91-39.01 2.23-3.75 5.23-7.09 9.19-9.05.75 2.13 1.29 4.33 1.61 6.56 1.47 1.1 3.04 2.04 4.65 2.93 3.96.06 7.39-2.17 9.72-5.23.31-1.17.66-2.32 1.04-3.46.45-4.52-1.59-8.89-4.75-12.03-1.78-.3-3.54-.63-5.29-1.02-13.2 4.32-18.31 18.36-25.97 28.57m88.16-24.92c-8.7 6.58-13.05 16.88-19 25.68 1.48-8.91 7.36-18.7 2.12-27.41-9.29-2.86-17.69 4.08-23.21 10.81-2.7 3.89-7.36 7.08-7.13 12.3.84-.12 2.53-.36 3.38-.47 4.46-4.47 7.54-10.59 13.65-13.15.04 1.38.47 2.81.08 4.18-4.85 15.78-9.67 31.58-14.78 47.28-.48 2.38-2.24 5.96.34 7.63 3.7 1.65 7.76.94 11.59.2.72-.95 1.68-1.76 2.04-2.94 2.61-6.92 5.01-13.92 8.24-20.58 2.47-6.26 6.16-11.91 9.03-17.98 3.82-5.94 7.3-12.33 12.78-16.94 2.95 2.2 1.8 6.74 4.75 8.89 3.66 1.77 8.04.05 10.66-2.78 3.65-4.81 2.64-12.11-1.33-16.38-4.04-3.74-9.37-.76-13.21 1.66m84.68 1.7c-13.42 7.38-22.89 21.4-24.78 36.59-1.51 7.13-.59 14.78 2.54 21.36 4.29 8.54 14.64 12.26 23.74 11.37 7.26-1.32 14.53-3.63 20.47-8.17 5.13-3.54 10.22-7.74 12.6-13.69-1.15-.38-2.43-1.64-3.47-.28-5.47 4.06-10.96 8.34-17.56 10.43-6.18 2.46-13.75 1.16-18.5-3.57-3.72-4.11-3.39-10.46-1.62-15.36 14.3-3.32 30.17-4.35 42-13.98 5.19-4.53 9.39-11.8 6.89-18.79-1-2.04-1.91-4.18-3.43-5.9-2.95-2.88-6.99-4.23-10.93-5.09-9.54-1.52-19.67-.05-27.95 5.08m-251.59-3.49c-11.66 3.35-21.65 11.23-28.79 20.89-7.18 10.48-12.66 23.15-11.14 36.1.64 5.76 4.06 11.15 9.23 13.86 3.41.76 6.88.81 10.27-.11 8.61-2.85 14.59-9.9 20.78-16.12.09 3.63-.63 7.31.03 10.91 1.04 3.18 4.08 6.15 7.67 5.62 8.72-.51 15.31-7.22 21.18-13.01 2.61-3.17 6.58-6.9 4.93-11.42-6.85 2.82-8.73 11.98-16.47 13.22.11-4.25 1.85-8.17 3.06-12.18 5.1-16.2 10.12-32.43 15.22-48.63-4.51-.46-9.05-.38-13.57-.43-1.07 1.59-2.08 3.21-3.07 4.83-4.77-5.62-12.84-5.34-19.33-3.53m348.22 3.2c-8.17 6.59-12.22 16.6-17.98 25.11 1.44-7.07 3.95-13.93 4.47-21.19-.25-2.59-1.14-5.08-2.68-7.19-2.89.1-5.85-.26-8.66.48-9.42 3.84-15.4 12.48-21.35 20.27l.48 2.61c1.24-.27 2.78.01 3.71-1.05 4.56-3.95 7.05-10.28 13.02-12.51.06 1.75.02 3.52-.38 5.24-4.01 18.04-11.25 35.15-15.6 53.1 3.7 2.6 8.44 1.58 12.67 1.92 1.7-1.52 2.97-3.44 3.44-5.7 3.62-12.34 9.92-23.63 15.93-34.92 3.9-6.76 7.04-14.55 13.97-18.84 1 2.46 1.48 5.12 2.63 7.52 1.49 1.32 3.53 1.85 5.3 2.75 4.67-1.49 9.53-5.32 8.87-10.78.77-4.71-2.35-8.58-5.86-11.24-4.33.16-8.65 1.59-11.98 4.42m-149.91 1.23c-6.06 17.52-12.13 35.03-18.16 52.55-1.95 4.94-1.38 10.75 2.04 14.92 4.12.14 8.38.25 12.2-1.55 7.59-3.63 14.44-9.04 19.37-15.88 1.41-1.72 1.21-3.94 1-6-6.67 3.39-10.37 11.09-17.88 12.97-.06-2.12-.31-4.3.33-6.36 2.36-7.6 4.82-15.18 7.52-22.67 3.41-10.3 6.9-20.59 9.51-31.13-3.8-2-8.19-1.26-12.29-1.2-2.49-.28-2.86 2.65-3.64 4.35" style="opacity:1;fill:#020298"/><path id="path28" d="M505.46 114.27c3.1-2.22 7.33-1.35 10.06 1.03 2.66 3.66 2.65 8.51 1.41 12.71-1.64 6.93-7.9 11.31-14 14.13-5.18 1.96-10.7 2.99-16.24 2.98 3.92-11.3 7.46-24.71 18.77-30.85" style="opacity:1;fill:#020298"/><path id="path30" d="M243.36 116.07c3.53-1.62 7.63-2.01 11.11-.03.4.65 1.2 1.93 1.6 2.58 1.05 5.55-2.17 10.39-4.02 15.36-5.31 12.35-11.04 25.91-23.05 33.16-4.31 2.63-10.27.94-12.05-3.89 1.35-18.49 11.06-36.59 26.41-47.18" style="opacity:1;fill:#020298"/></g></svg>