<svg xmlns="http://www.w3.org/2000/svg" viewBox="55 220 475 135"><path d="M240.61 281.15c-9.63 0-15.31-6.88-15.31-16.03s5.81-16.28 15.1-16.28c3.24 0 6.33.45 9.76 2.38l.64-7.59c-3.28-1.29-7.21-1.88-10.19-1.88-15.31 0-24.75 8.64-24.75 24.02s10.14 22.45 24.75 22.45c3.42 0 6.97-.63 10.27-1.42l-.39-7.53c-2.14 1.11-6.33 1.87-9.87 1.87Zm35.37-27.61c-4.52 0-8.27 2.06-10.46 5.27h-.12v-19.63h-8.66v48.29h8.66v-16.23c0-4.25 1.35-11.01 7.62-11.01 5.55 0 5.62 5.47 5.62 9.52v17.71h8.65v-20.92c0-7.49-3.43-13.01-11.31-13.01Zm19.19-13.53h8.67v8.25h-8.67zm0 14.3h8.67v33.16h-8.67zm38.19 25.68c-1.47.63-4.18 1.54-6.64 1.54-6.07 0-8.97-4.69-8.97-10.81s3.42-10.49 8.79-10.49c2.65 0 4.31.52 5.88 1.22l.77-6.83c-2.38-.7-4.92-1.08-8.38-1.08-10.42 0-16.1 7.6-16.1 17.19 0 10.1 5.5 17.5 16.4 17.5 3.57 0 6.14-.33 8.66-1.09l-.4-7.15Zm34.11.06c-.09-2.44-.13-4.95-.13-8.29v-4.27c0-9.76-4.21-13.95-14.35-13.95-3.69 0-8.2.95-11.56 2.5l.26 7.4c2.93-2.19 6.59-3.6 10.27-3.6 5.11 0 7.51 1.81 7.51 7.15h-4.81c-3.61 0-7.87.33-11.16 1.92-3.29 1.61-5.68 4.51-5.68 9.47 0 6.32 5.74 9.85 11.62 9.85 3.93 0 8.28-2.05 10.27-5.73h.14c.06 1.05.06 3.23.38 4.97h7.63c-.19-2.57-.33-4.91-.38-7.42Zm-9.82-1.08c-1.37 1.8-3.42 2.96-6.07 2.96-3.09 0-5.48-1.23-5.48-4.07 0-5.08 5.74-5.72 9.63-5.72h3.74c0 2.56-.39 4.97-1.82 6.83m28.76 8.5c4.84 0 8.73-2.46 10.34-5.29h.14c0 5.72-.44 12.86-10.03 12.86-2.7 0-7.04-1.45-9.68-2.9l-.7 7.35c4.12 1.73 8.06 2.26 11.48 2.26 13.96 0 17.58-8.49 17.58-17.51v-29.93h-8.28v4.5h-.13c-2.4-3.8-5.81-5.27-10.2-5.27-9.95 0-14.09 9.21-14.09 17.19 0 8.87 3.75 16.74 13.56 16.74Zm3.22-27.24c5.05 0 7.25 4.63 7.25 10.29s-2.2 10.24-7.63 10.24c-4.98 0-7.35-5.55-7.35-10.04 0-5.08 1.86-10.49 7.73-10.49m56.2 10.87c0-10.94-7.56-17.56-17.43-17.56s-17.38 6.63-17.38 17.56c0 9.52 6.39 17.13 17.38 17.13s17.43-7.6 17.43-17.13m-25.77-1.01c0-4.97 2.72-9.86 8.33-9.86s8.38 4.76 8.38 9.86c0 5.52-1.72 11.45-8.38 11.45s-8.33-5.98-8.33-11.45m-189.38 26.28h-11.43v44.93h9.04v-17.04h3.81c9.69 0 17.37-3.81 17.37-14.3s-8.95-13.58-18.79-13.58Zm.77 20.81h-3.16v-13.72h3.16c4.66 0 8.61 1.81 8.61 7.02s-4.08 6.7-8.61 6.7m42-9.79c-4.5 0-8.2 1.47-10.91 5.27h-.13v-4.5h-8.19v33.14h8.65v-16.22c0-4.24 1.35-11 7.62-11 5.55 0 5.62 5.48 5.62 9.53v17.69h8.65v-20.92c0-7.45-3.42-12.99-11.31-12.99m32.54 0c-10.33 0-15.44 7.91-15.44 17.5 0 10.89 6.4 17.18 17.38 17.18 4.65 0 8.27-.89 11.43-2.63v-7.02c-3.23 1.81-6.86 3.35-11.04 3.35-5.34 0-9.11-3.03-9.48-8.36h22.98c0-11.6-3.48-20.03-15.83-20.03Zm-7.16 14.1c.37-4.45 2.83-7.78 7.69-7.78s6.76 3.59 7.03 7.78zm49 2.89c0 4.26-1.37 11-7.64 11-5.54 0-5.6-5.46-5.6-9.51v-17.71h-8.67v20.92c0 7.47 3.44 12.99 11.32 12.99 4.51 0 8.26-2.04 10.92-5.27h.12v4.49h8.21v-33.14h-8.64v16.22Zm55.81-16.99c-4.05 0-8.39 1.86-10.4 5.85-1.86-4.11-5.17-5.85-9.8-5.85-3.25 0-7.19 1.36-9.91 5.41h-.13v-4.64h-8.07v33.14H374v-16.08c0-4.31.71-11.13 6.46-11.13 4.96 0 4.96 4.38 4.96 7.47v19.74h8.65v-16.08c0-4.31.71-11.13 6.46-11.13 4.98 0 4.98 4.38 4.98 7.47v19.74h8.66v-20.92c0-7.39-2.32-12.99-10.54-12.99Zm46.93 18.22v-4.25c0-9.78-4.19-13.97-14.35-13.97-3.69 0-8.19.96-11.56 2.51l.27 7.39c2.91-2.18 6.6-3.59 10.27-3.59 5.1 0 7.49 1.8 7.49 7.14h-4.78c-3.61 0-7.88.32-11.17 1.92-3.3 1.62-5.69 4.51-5.69 9.46 0 6.32 5.75 9.85 11.63 9.85 3.93 0 8.26-2.04 10.25-5.7h.14c.07 1.03.07 3.2.39 4.93h7.61c-.18-2.56-.32-4.89-.38-7.39-.08-2.45-.13-4.97-.13-8.31Zm-9.69 7.2c-1.36 1.82-3.42 2.97-6.06 2.97-3.09 0-5.5-1.22-5.5-4.06 0-5.09 5.75-5.74 9.62-5.74h3.76c0 2.59-.39 4.95-1.81 6.83Zm32.34 2.58c-3.3 0-4.07-2.63-4.07-5.46v-15.44h7.68v-6.31h-7.68v-9.42l-8.65 2.79v6.63h-6.4v6.31h6.4v16.86c0 6.56 3.74 10.74 10.51 10.74 2.58 0 4.58-.24 6.4-.77l-.26-6.81c-.9.57-2.38.9-3.93.9Zm9.32-27.23h8.67v33.14h-8.67zm0-13.82h8.67v8.24h-8.67zm39.16 39.5c-1.47.65-4.2 1.54-6.66 1.54-6.06 0-8.96-4.69-8.96-10.8s3.42-10.5 8.79-10.5c2.63 0 4.31.51 5.86 1.22l.79-6.83c-2.39-.7-4.92-1.09-8.4-1.09-10.4 0-16.08 7.59-16.08 17.19 0 10.1 5.5 17.49 16.4 17.49 3.55 0 6.14-.31 8.67-1.08l-.4-7.15Z"/><path fill="#ed1c2e" d="M103.83 253.98s-19.83 7.15-18.4 27.8c0 0-.8 23.21 27.09 27.6v-13.39s-13.77-2.26-13.5-17.46c0 0 1.3-13.04 17.37-13.83l10.78-.04v-12.77s-13.99-2.26-23.34 2.08Z"/><path fill="#ed1c2e" d="M123.35 226.07c-34.83 0-63.08 28.23-63.08 63.08s28.25 63.09 63.08 63.09 63.09-28.25 63.09-63.09-28.24-63.08-63.09-63.08m6.36 113.24v-52.82c18.05-1.27 17.22 11.04 17.22 11.04.69 12.56-12.85 13.93-12.85 13.93v11.73c15.51-.25 22.46-10.45 22.46-10.45 10.06-19.12-3.67-32.3-3.67-32.3-14.09-12.81-36.71-5.24-36.71-5.24v64c-24.51-3.49-43.36-24.56-43.36-50.03 0-27.92 22.63-50.55 50.55-50.55s50.54 22.63 50.54 50.55c0 25.76-19.27 47.02-44.18 50.15Z"/></svg>