<svg xmlns="http://www.w3.org/2000/svg" id="svg31434" width="1024" height="237" viewBox="-1.086 -1.086 165.716 38.361"><path id="path30907" d="m158.513 29.21.358-1.622q-.643.911-1.432 1.368a3.44 3.44 0 0 1-1.743.453q-1.562 0-2.162-1.171t-.178-3.094q.446-2.027 1.7-3.381 1.256-1.352 2.972-1.352.463 0 .828.098c.24.067.47.167.676.304q.31.205.68.668l1.021-4.647h2.311l-2.718 12.377zm1.395-6.348c-.235-.368-.48-.613-.731-.744a1.74 1.74 0 0 0-.815-.197q-.917 0-1.571.906-.656.902-.923 2.125-.264 1.204.002 1.921c.18.476.535.715 1.074.715q.51 0 1.091-.364a5.5 5.5 0 0 0 1.125-.958zm-16.313 6.349 1.89-8.6h2.31l-.355 1.613q.845-.992 1.697-1.402.85-.411 1.633-.411c.68 0 1.214.22 1.61.655q.589.655.277 2.062l-1.337 6.083h-2.31l1.21-5.513q.159-.703.083-.955a.67.67 0 0 0-.271-.38.83.83 0 0 0-.47-.131q-.481 0-1.07.319-.588.319-1.397 1.24l-1.19 5.42zm-3.902-.912q-.607.481-1.02.691-.416.21-.838.315-.421.105-.866.104-1.152 0-1.686-.714-.536-.72-.307-1.76.279-1.269 1.5-2.12 1.22-.85 3.543-.85h.616l.174-.778q.17-.786-.208-1.06-.376-.272-1.05-.272-1.329 0-2.878.763l.352-1.608q1.7-.6 3.259-.6c.636 0 1.182.088 1.649.259q.69.261 1.022.806.33.543.091 1.625l-.837 3.809q-.151.698.032.858a.6.6 0 0 0 .402.153q.127 0 .325-.023l-.24 1.296q-.783.216-1.353.216-.645.002-1.06-.214-.422-.211-.521-.896zm.263-1.241.388-1.759h-.548q-1.13 0-1.775.406-.642.408-.778 1.014-.11.497.156.818a.9.9 0 0 0 .719.318q.405 0 .87-.202.46-.2.968-.595m-14.53 2.153 2.548-11.6h4.335q1.328.001 1.952.335c.415.22.71.558.877 1.01q.255.676.067 1.533-.224 1.021-1.011 1.925a5.1 5.1 0 0 1-1.963 1.385l2.61 5.412h-2.94l-1.845-4.733h-1.323l-1.043 4.733zm3.657-6.335h.557q1.488.001 2.208-.647.716-.649.896-1.47.155-.71-.215-1.13-.376-.417-1.799-.418h-.842zM117.36 29.21l2.717-12.377h2.313l-2.72 12.377zm-4.185 0 2.718-12.377h2.313l-2.72 12.377zm-5.494.199q-1.395 0-2.271-.544-.88-.546-1.172-1.604t-.007-2.352a6.3 6.3 0 0 1 1.032-2.34 4.94 4.94 0 0 1 1.87-1.605q1.122-.553 2.525-.554 1.406.001 2.286.554.874.553 1.164 1.606c.19.701.193 1.484.005 2.339a6.3 6.3 0 0 1-1.04 2.352 4.96 4.96 0 0 1-1.874 1.604q-1.118.544-2.518.544m.317-1.443q.984 0 1.67-.869.684-.867.976-2.188.288-1.311-.016-2.184-.305-.87-1.288-.87c-.651 0-1.202.29-1.664.87-.46.582-.78 1.31-.976 2.184-.19.88-.189 1.61.016 2.188q.306.869 1.282.869m-11.891.978.375-1.711q1.563.731 2.785.732.652 0 1.099-.276.45-.274.542-.698a.66.66 0 0 0-.151-.618q-.24-.244-.781-.48l-.714-.313q-1.104-.485-1.556-1.074-.451-.581-.245-1.515.247-1.122 1.278-1.85 1.03-.732 2.82-.732 1.048.002 2.428.311l-.358 1.624q-1.283-.49-2.196-.49-.718.001-1.131.247-.414.25-.499.64a.62.62 0 0 0 .116.54c.114.158.358.312.724.464l.615.259q1.524.637 1.908 1.231.375.605.19 1.445-.24 1.09-1.355 1.909-1.115.82-2.898.82a10 10 0 0 1-2.996-.465m-5.806.266 1.89-8.6h2.31l-.355 1.62a4.7 4.7 0 0 1 1.425-1.324q.83-.495 1.715-.496c.14 0 .285.009.425.022l-.458 2.089a2.4 2.4 0 0 0-.876-.178 2.74 2.74 0 0 0-1.329.348q-.642.351-1.235 1.051l-1.2 5.468zm-1.251-.29q-1.752.489-3.22.488-1.395 0-2.327-.52-.93-.521-1.252-1.63-.32-1.11-.036-2.411a6.3 6.3 0 0 1 .97-2.23 5.3 5.3 0 0 1 1.747-1.615q1.045-.592 2.384-.593 1.641.001 2.39 1.055.747 1.054.119 3.923h-5.28c-.075.58-.047 1.041.09 1.375q.202.503.673.797.47.295 1.37.295 1.153 0 2.728-.555zm-4.263-4.843h3.036q.264-1.193-.015-1.708-.274-.516-.89-.515-.672 0-1.226.565-.555.566-.905 1.658M71.97 31.854l.553-1.688q1.275.665 2.555.666 1.206-.001 1.925-.506.716-.51 1.001-1.812l.259-1.17q-.555.828-1.383 1.345a3.33 3.33 0 0 1-1.806.522q-.997 0-1.642-.503-.645-.5-.83-1.507-.181-1.009.088-2.245.429-1.937 1.687-3.24 1.26-1.305 2.987-1.305.46 0 .821.093.361.092.667.288.309.198.702.666l.429-.847h2.07l-1.44 6.553q-.57 2.6-1.27 3.498-.696.899-1.828 1.356a6.5 6.5 0 0 1-2.466.459q-1.492 0-3.079-.623m6.59-5.862.7-3.184q-.372-.568-.752-.76a1.7 1.7 0 0 0-.775-.192q-.858-.001-1.551.802-.693.802-.992 2.17-.257 1.171.01 1.844.266.67 1.04.671.557.001 1.137-.337c.384-.227.781-.564 1.182-1.014m-15.67 3.218 1.89-8.6h2.312l-.355 1.614c.561-.66 1.129-1.13 1.695-1.402q.849-.412 1.635-.412 1.017.001 1.606.655.59.656.28 2.063l-1.337 6.082h-2.311l1.21-5.512q.159-.704.08-.955a.66.66 0 0 0-.267-.38.84.84 0 0 0-.47-.131q-.48 0-1.07.318-.586.32-1.396 1.242L65.2 29.21zm-4.215 0 2.546-11.598h2.403l-2.55 11.598z" style="fill:#d52b1e;fill-opacity:1;fill-rule:nonzero;stroke:none"/><path id="path30923" d="M57.614 9.882C55.806.98 41.489-2.56 25.628 1.975a53.7 53.7 0 0 0-9.19 3.562h1.94a39 39 0 0 1 7.373-2.948C38.92-1.178 51 2.712 52.74 11.277c.997 4.91-1.628 10.288-6.528 14.697l-.46 2.193C53.972 22.9 58.84 15.934 57.613 9.882m-18.196 20.77a38.8 38.8 0 0 1-7.372 2.948C18.882 37.366 6.8 33.477 5.062 24.915c-.997-4.92 1.635-10.308 6.551-14.72l.46-2.187C3.838 13.28-1.04 20.255.188 26.308c1.807 8.903 16.128 12.442 31.984 7.907a54 54 0 0 0 9.191-3.563zM33.26 15.804l1.015-4.821c2.606.026 4.679-.081 4.208 2.15-.607 2.885-1.62 2.617-5.223 2.671m-11.9 13.411h9.077l1.803-8.577c3.438-.111 4.604.279 4.238 2.02l-1.38 6.557h9.037l1.514-7.202c.203-.958.698-3.31-3.261-4.375 4.024-1.095 4.896-3.398 5.232-4.995.784-3.731-2.27-5.668-6.977-5.668H26.039zm-7.675-22.24h9.633l-4.679 22.24H9.007z" style="fill:#d52b1e;fill-opacity:1;fill-rule:nonzero;stroke:none"/></svg>