<svg xmlns="http://www.w3.org/2000/svg" id="svg8805" width="1024" height="324" viewBox="-0.829 -0.829 92.603 29.288"><path id="path3107" d="M90.945 27.63H0V0h90.945z" style="fill:#231f20;fill-opacity:1;fill-rule:nonzero;stroke:none"/><path id="path3139" d="M80.59 7.646c0 .09-.02.163-.04.233 0 .04-.02.07-.04.112 0 .02-.03.06-.04.09-.03.04-.04.08-.06.112-.03.04-.05.06-.07.09-.03.02-.05.05-.06.06-.03.02-.06.05-.09.06-.04.02-.07.04-.113.05-.04.01-.07.02-.1.02-.06.01-.112.01-.112.01h-2.214V6.447h2.234v.001h.02v.001h.11c.01 0 .02 0 .04.01 0 0 .02 0 .04.01 0 0 .03 0 .03.01.01 0 .02.01.04.02.01 0 .03.02.04.02.01.01.04.03.05.04l.06.06c.01.02.04.05.05.08.03.04.04.07.06.112.03.06.05.135.07.218q0 .073.03.157v.348m5.576 0c0-2.732-2.166-3.935-3.105-3.935H72.133v10.846h5.459v-3.138h.456l1.758 3.138h6.046l-1.918-3.606c.823-.486 2.166-1.426 2.166-3.305m-28.078 3.863c.215-5.025-6.593-2.435-6.155-4.946.276-1.393 3.393-.289 4.968.462l1.339-2.346c-3.097-1.771-11.115-3.029-11.515 1.884-.242 4.858 6.107 3.111 5.971 4.987-.173 1.826-4.296-.05-4.86-.366l-1.359 2.401c2.593 1.756 11.386 3.37 11.611-2.076m-33.348.1 1.005-1.996.935 1.996zm4.217-7.81h-6.239l-4.456 9.905-2.435-4.481 2.414-5.424H12.52l-2.507 4.776V3.687H4.765v10.845h5.248V9.317l2.683 5.215h10.779l.353-.94h3.826l.353.94h5.534zm5.47 10.845h10.513v-2.683h-4.993v-1.408h4.111V7.622h-4.111V6.448h4.993V3.686H34.361zm25.25 0h10.456v-2.683h-4.935v-1.408h4.169V7.622h-4.169V6.448h4.935V3.686H59.611z" style="fill:#fff;fill-opacity:1;fill-rule:nonzero;stroke:none"/><path id="path3143" d="M84.571 16.99v5.088l-2.79-5.088H80.3v7.406h1.393v-5.088l2.81 5.088h1.462V16.99zm-9.116 4.133h3.288v-1.265h-3.288v-1.579h3.597V16.99h-4.99v7.406h5.158v-1.367h-3.765zm-4.345-1.13q-.257.237-.794.237h-1.667v-1.965h1.729c.325 0 .574.09.735.251q.249.25.25.732c0 .338-.09.59-.253.745m1.528 3.373v-.04l-.02-.872c-.03-.495-.09-.861-.218-1.096q-.192-.352-.638-.523a1.35 1.35 0 0 0 .758-.619c.177-.301.263-.681.263-1.131 0-.71-.178-1.241-.541-1.582q-.54-.52-1.662-.52h-3.334v7.406h1.411v-2.88h1.5q.566 0 .783.24.217.243.241.93l.02.779c0 .211.03.392.05.547.02.151.06.278.112.384h1.551v-.228q-.253-.137-.265-.802m-8.46-.768q-.506.677-1.421.678-.904-.002-1.411-.678-.503-.678-.505-1.898.002-1.225.505-1.903.507-.671 1.411-.672.915 0 1.421.677.512.677.511 1.898.001 1.22-.511 1.898m-1.421-5.801q-1.54 0-2.447 1.053-.908 1.052-.909 2.85 0 1.791.909 2.846.907 1.055 2.447 1.056 1.536-.001 2.45-1.056.912-1.055.913-2.846 0-1.791-.913-2.849-.914-1.054-2.45-1.054m-4.998 3.716c-.155-.1-.339-.18-.549-.258-.208-.08-.566-.182-1.066-.322-.125-.02-.283-.08-.497-.125-.78-.199-1.168-.49-1.168-.883q0-.43.302-.665.299-.234.854-.235c.426 0 .756.1.984.282q.348.283.383.82h1.359c-.02-.747-.265-1.319-.719-1.73q-.676-.613-1.881-.613-1.286 0-1.967.575-.681.576-.682 1.656c0 .388.06.723.192 1.004q.194.427.555.678.409.28 1.372.506c.06.01.113.04.144.04h.04q1.793.439 1.794 1.115c0 .307-.1.542-.31.697q-.313.238-.928.238c-.482 0-.854-.1-1.107-.293-.255-.199-.414-.498-.462-.904h-1.395c.04.798.3 1.414.794 1.845q.733.65 2.033.65 1.316 0 2.037-.635c.483-.427.725-1.022.725-1.794 0-.387-.08-.72-.21-.993a1.64 1.64 0 0 0-.63-.667m-6.552 0a2.8 2.8 0 0 0-.549-.257c-.208-.07-.563-.183-1.064-.323-.113-.02-.285-.07-.494-.125q-1.174-.295-1.173-.882 0-.431.303-.665.3-.234.854-.235c.425 0 .756.1.985.281q.347.283.382.82h1.36c-.03-.746-.265-1.319-.717-1.73q-.678-.611-1.882-.612-1.29 0-1.967.575-.682.575-.684 1.656c0 .387.06.722.191 1.004q.192.428.557.677.41.282 1.371.506c.06.01.112.04.144.04h.04q1.795.44 1.796 1.115c0 .308-.1.543-.313.698q-.31.238-.928.237c-.483 0-.851-.1-1.104-.292q-.384-.297-.464-.904h-1.395c.04.798.302 1.414.795 1.845q.735.65 2.034.65 1.313 0 2.038-.635c.483-.427.722-1.022.722-1.794q0-.582-.212-.993a1.6 1.6 0 0 0-.628-.667m-9.278.609h3.289v-1.265h-3.289V18.25h3.598v-1.288h-4.99v7.406h5.158V23h-3.766zm-4.345-1.13c-.173.158-.435.237-.795.237h-1.663v-1.965h1.729c.325 0 .573.09.735.251.161.167.246.41.246.732 0 .338-.09.59-.252.745m1.529 3.373v-.04l-.03-.872q-.028-.743-.217-1.096c-.129-.234-.339-.41-.639-.523q.495-.166.758-.619c.176-.301.264-.681.264-1.131 0-.71-.179-1.241-.542-1.582q-.536-.52-1.663-.52h-3.333v7.406h1.415v-2.88h1.498c.376 0 .636.07.783.24q.215.243.24.93l.01.779c0 .211.02.392.05.547q.032.226.113.384h1.554v-.228q-.257-.137-.267-.802m-8.175-3.2q-.255.253-.808.252h-1.368v-2.14h1.442q.49 0 .736.273.248.268.247.796c0 .376-.09.649-.249.819m-.542-3.176h-3.057v7.406h1.413v-2.633h1.736q1.014 0 1.556-.624.549-.62.548-1.763c0-.786-.186-1.375-.558-1.78q-.557-.605-1.638-.606m-7.932 5.635-1.367-5.635h-2.09v7.406h1.323v-5.972l1.417 5.972h1.445l1.394-5.972v5.972h1.326v-7.406h-2.099zm-6.516-.02q-.507.677-1.424.678c-.604 0-1.071-.228-1.409-.678q-.502-.678-.502-1.899 0-1.225.502-1.902.505-.672 1.409-.673.917 0 1.424.678.51.677.51 1.897 0 1.221-.51 1.899m-1.424-5.801q-1.538 0-2.446 1.052-.909 1.054-.91 2.85.001 1.792.91 2.847.908 1.054 2.446 1.056 1.538-.002 2.451-1.056c.612-.704.913-1.652.913-2.847 0-1.193-.301-2.143-.913-2.848q-.913-1.054-2.451-1.054m-3.407 7.631-2.992-4.41 2.745-2.996H9.103l-2.686 3.041v-3.041H5.004v7.406h1.413v-2.601l.731-.786 2.242 3.387z" style="fill:#fff;fill-opacity:1;fill-rule:nonzero;stroke:none"/></svg>