<svg xmlns="http://www.w3.org/2000/svg" xml:space="preserve" id="layer" x="0" y="0" viewBox="0 225 652 190"><path d="M20.3 360.4h591.3v45.8H20.3z"/><path d="M279.4 385.2h3.8l-1.1-4.6c-.2-.8-.4-1.9-.6-3.4h-.3zm-1.7 6.2-.8 3.3h-10l9.1-26.1h10.5l9.3 26.1h-10l-.9-3.3zm25.3-25.1c1.4 0 2.6.4 3.5 1.2s1.4 1.8 1.4 3.1q0 2.1-1.5 3.3c-.9.7-2 1-3.4 1s-2.5-.3-3.4-1q-1.5-1.2-1.5-3.3c0-1.3.5-2.4 1.4-3.1.8-.8 2-1.2 3.5-1.2m4.4 28.4h-8.9v-18.4h8.9zm19.8-18.8v9.1c-1.1-.7-2-1-2.7-1-2.3 0-3.5 1.2-3.5 3.7v7.1h-9v-18.4h8.9l-.2 2.5h.2c.8-1.2 1.6-2 2.6-2.4.9-.5 2.1-.7 3.7-.6m37-6.7.3 9.9c-1.9-1.8-3.8-2.6-5.6-2.6-1.4 0-2.7.5-3.7 1.5q-1.5 1.5-1.5 3.6c0 1.4.5 2.6 1.6 3.6s2.3 1.5 3.7 1.5q3 0 5.4-2.4l-.3 9.8c-1.5.7-3.7 1-6.8 1-3.7 0-6.9-1.3-9.4-3.8-2.6-2.6-3.8-5.7-3.8-9.4 0-3.8 1.3-7 3.9-9.7 2.7-2.7 5.9-4 9.7-4 2.3-.1 4.4.3 6.5 1m14.4 13.7c-.7 0-1.3.3-1.8.8s-.7 1.1-.7 1.9c0 .7.2 1.3.7 1.8s1.1.7 1.8.7 1.3-.2 1.8-.7.7-1.1.7-1.8c0-.8-.2-1.4-.7-1.9-.5-.6-1.1-.8-1.8-.8m0-7c3.2 0 5.8.8 7.9 2.5 2.2 1.8 3.3 4.2 3.3 7.3 0 2.9-1.1 5.2-3.4 7-2.1 1.6-4.7 2.4-7.7 2.4s-5.6-.8-7.7-2.4c-2.3-1.7-3.4-4.1-3.4-7 0-3.1 1.1-5.5 3.3-7.3 1.9-1.7 4.5-2.5 7.7-2.5m23.3.4-.3 2.9h.2c1-1.2 1.9-2 2.5-2.4.9-.6 2.1-.9 3.4-.9 2.1 0 3.8.7 4.9 2.2 1 1.3 1.5 3.1 1.5 5.3v11.3h-8.9v-9c0-1.7-.5-2.6-1.5-2.6s-1.5.9-1.5 2.6v9h-8.9v-18.4zm26.7 6.6c-.7 0-1.3.3-1.7.8q-.6.75-.6 1.8c0 .7.2 1.4.6 1.9s1 .8 1.7.8 1.2-.3 1.7-.9q.6-.75.6-1.8c0-.7-.2-1.3-.7-1.8-.4-.6-.9-.8-1.6-.8m2.6 11.8.2-2.7h-.2c-1.7 2.1-3.7 3.2-6 3.2s-4.2-1-5.7-3.1c-1.3-1.8-2-3.9-2-6.4s.6-4.7 1.9-6.6c1.4-2.1 3.4-3.2 5.8-3.2 1 0 2.1.3 3.1.8s1.8 1.2 2.5 2.1h.3l-.4-4.4v-7.8h8.9v28.1zm17.4-28.4c1.4 0 2.6.4 3.5 1.2s1.4 1.8 1.4 3.1q0 2.1-1.5 3.3c-.9.7-2 1-3.4 1s-2.5-.3-3.4-1q-1.5-1.2-1.5-3.3c0-1.3.5-2.4 1.4-3.1.9-.8 2.1-1.2 3.5-1.2m4.5 28.4h-8.9v-18.4h8.9z"/><path d="M467.9 370.4v6.1l3-.1v7l-3-.1v11.4h-9v-11.4l-2.2.1v-7l2.2.1v-6.1" style="fill:#fff"/><path d="M478.3 366.3c1.4 0 2.6.4 3.5 1.2s1.4 1.8 1.4 3.1q0 2.1-1.5 3.3c-.9.7-2 1-3.4 1s-2.5-.3-3.4-1q-1.5-1.2-1.5-3.3c0-1.3.5-2.4 1.4-3.1.9-.8 2.1-1.2 3.5-1.2m4.5 28.4h-8.9v-18.4h8.9zm15.2-11.8c-.7 0-1.3.3-1.8.8s-.7 1.1-.7 1.9c0 .7.2 1.3.7 1.8s1.1.7 1.8.7 1.3-.2 1.8-.7.7-1.1.7-1.8c0-.8-.2-1.4-.7-1.9-.5-.6-1.1-.8-1.8-.8m0-7c3.2 0 5.8.8 7.9 2.5 2.2 1.8 3.3 4.2 3.3 7.3 0 2.9-1.1 5.2-3.4 7-2.1 1.6-4.7 2.4-7.7 2.4s-5.6-.8-7.7-2.4c-2.3-1.7-3.4-4.1-3.4-7 0-3.1 1.1-5.5 3.3-7.3 1.9-1.7 4.5-2.5 7.7-2.5m23.4.4-.3 2.9h.2c1-1.2 1.9-2 2.5-2.4.9-.6 2.1-.9 3.4-.9 2.1 0 3.8.7 4.9 2.2 1 1.3 1.4 3.1 1.4 5.3v11.3h-8.9v-9c0-1.7-.5-2.6-1.5-2.6s-1.5.9-1.5 2.6v9h-8.9v-18.4zm21.2-10c1.4 0 2.6.4 3.5 1.2s1.4 1.8 1.4 3.1q0 2.1-1.5 3.3c-.9.7-2 1-3.4 1s-2.5-.3-3.4-1q-1.5-1.2-1.5-3.3c0-1.3.5-2.4 1.4-3.1.9-.8 2.1-1.2 3.5-1.2m4.5 28.4h-8.9v-18.4h8.9zm13.3-18.4-.4 2.9h.2c1-1.2 1.9-2 2.5-2.4.9-.6 2.1-.9 3.4-.9 2.1 0 3.8.7 4.9 2.2 1 1.3 1.5 3.1 1.5 5.3v11.3h-8.9v-9c0-1.7-.5-2.6-1.5-2.6s-1.5.9-1.5 2.6v9h-8.9v-18.4zm24.4 9.2c0 .8.2 1.4.7 1.9s1.1.7 1.8.7 1.3-.2 1.7-.7q.6-.75.6-1.8c0-.7-.2-1.4-.6-1.9s-1-.8-1.7-.8-1.3.3-1.8.8c-.5.4-.7 1.1-.7 1.8m13.1-9.2v17.3c0 3.4-1.2 6-3.7 7.7-2.2 1.6-5 2.4-8.6 2.4-2.5 0-5.1-.5-7.9-1.5l-.9-.3 2-6.2c1.7 1.5 3.9 2.3 6.4 2.3 1.2 0 2.1-.4 2.9-1.1.7-.8 1.1-1.7 1.2-2.9l.2-1.9h-.2c-.4.9-1.2 1.7-2.3 2.3-1 .5-2 .8-3.1.8-2.4 0-4.3-1-5.8-3.1-1.4-1.9-2.1-4-2.1-6.5s.7-4.6 2-6.5c1.5-2.1 3.5-3.1 5.9-3.1 2.3 0 4.1 1 5.4 3.1h.2l-.2-2.6h8.6zm11.7-129.4c1.4 0 2.5.1 3.2.4 1.2.5 1.8 1.5 1.8 2.9 0 1-.4 1.8-1.1 2.3-.4.3-1 .4-1.7.6.9.1 1.6.5 2 1.1q.6.9.6 1.8v1.7l.1.6.1.1h-1.9v-1.5c0-1.3-.4-2.2-1.1-2.7-.4-.3-1.2-.4-2.3-.4h-1.6v4.6h-2v-11.6h3.9m2.2 1.9c-.5-.3-1.3-.4-2.5-.4h-1.7v4.2h1.8c.9 0 1.5-.1 1.9-.3q1.2-.45 1.2-1.8c0-.8-.2-1.4-.7-1.7m5.4 11.5c-2.1 2.1-4.5 3.1-7.5 3.1-2.9 0-5.4-1-7.4-3.1s-3.1-4.5-3.1-7.5c0-2.9 1-5.4 3.1-7.4 2-2 4.5-3.1 7.4-3.1s5.4 1 7.5 3.1c2.1 2 3.1 4.5 3.1 7.4s-1 5.4-3.1 7.5m-13.8-13.9c-1.8 1.8-2.6 3.9-2.6 6.4s.9 4.7 2.6 6.5c1.8 1.8 3.9 2.7 6.4 2.7s4.7-.9 6.4-2.7c1.8-1.8 2.6-3.9 2.6-6.5 0-2.5-.9-4.6-2.6-6.4-1.8-1.8-3.9-2.7-6.4-2.7s-4.7.9-6.4 2.7M22.2 347.4 36.8 240l39.8.1 13.9 49.2C91 286.1 105 240 105 240l40.9.7 13.9 106.7h-37.1l-6.2-47-14.8 47H80l-16.1-47c-.2 2.8-5.6 47-5.6 47zm197.3-71.9V305c-4.8-4-9.1-6-13.1-6q-4.95 0-8.1 3-3 2.85-3 7.8c0 2.8 1 5.3 3 7.4 2.1 2 4.6 3 7.4 3 3.7 0 8.3-1.9 13.7-5.6l-1.5 29.9c-7 2.3-13 3.4-17.9 3.4-12.2 0-21.9-3.2-29.1-9.7-7.6-6.8-11.4-16.1-11.4-28 0-10.9 3.6-20 10.7-27.3 7.2-7.4 16.1-11.1 26.9-11.1 7.4 0 14.8 1.2 22.4 3.7m127.6-2.1h35.2V311c0 5.9 2 8.8 6.1 8.8 4 0 6-2.9 6-8.8v-37.6h35.2v41.2c0 10.9-4.2 19.3-12.6 25.3-7.5 5.4-17 8.1-28.6 8.1-11.5 0-21.1-2.7-28.6-8.1-8.4-6-12.6-14.4-12.6-25.3v-41.2m122.9 36.1c0 7.1 3.1 10.7 9.2 10.7 3.1 0 5.5-1.1 7.3-3.4 1.5-1.9 2.2-4.4 2.2-7.5 0-2.8-.9-5.2-2.6-7-1.8-1.8-4-2.7-6.9-2.7-2.8 0-5 1-6.7 3-1.7 1.8-2.5 4.2-2.5 6.9m17.5 36.8 1.1-9.6h-.8c-3.6 3.8-6.8 6.6-9.8 8.2-3.7 2-7.8 3-12.5 3-9.3 0-16.9-4.1-22.8-12.2-5.3-7.3-8-15.8-8-25.6q0-15 8.1-26.1c6-8.2 13.9-12.4 23.6-12.4 9.2 0 16.3 3.4 21.3 10.3h.8l-1.1-8.7h34.8v73h-34.7z"/><path d="m520.1 273.4 35.6.1 12.3 27.8 9.6-27.9h33.7L574.6 357l-35.9-.3 11.1-25.1m-326.6-36.9c0-31.7 26.9-57.4 60.1-57.4s60.2 25.7 60.2 57.4c0 19.5-10.2 36.7-25.7 47.1l8.1 14.6h-28.1l-2.6-5.4c-3.8.7-7.8 1.1-11.8 1.1-33.3 0-60.2-25.7-60.2-57.4m38.7-.3c0 12.1 7.6 22.2 17.5 23.8l-7.6-15.9h24.1l3 5.5c2.2-3.8 3.5-8.4 3.5-13.4 0-13.2-9.1-24-20.3-24s-20.2 10.7-20.2 24"/></svg>