<svg xmlns="http://www.w3.org/2000/svg" xml:space="preserve" id="svg3336" width="504" height="80.399" viewBox="0 0 504 80.399"><defs id="defs3340"><clipPath id="clipPath3536" clipPathUnits="userSpaceOnUse"><path id="path3538" d="M283.61 700.16h166.16v-25.242H283.61z"/></clipPath><clipPath id="clipPath3560" clipPathUnits="userSpaceOnUse"><path id="path3562" d="M283.61 700.16h166.16v-25.242H283.61z"/></clipPath><clipPath id="clipPath3580" clipPathUnits="userSpaceOnUse"><path id="path3582" d="M283.61 700.16h166.16v-25.242H283.61z"/></clipPath></defs><g id="g3344" fill="#0056a8" transform="matrix(1.25 0 0 -1.25 -352.51 1003.9)"><g id="g3532" transform="translate(-406.36 -901.55)scale(2.4328)"><g id="g3534" fill="#0056a8" clip-path="url(#clipPath3536)"><g id="g3540" fill="#0056a8" transform="translate(446.22 677.78)"><path id="path3542" fill="#0056a8" d="M0 0c-1.324-1.392-2.825-2.222-4.708-2.601a11.6 11.6 0 0 0-3.676-.177c-1.712.176-3.125.726-4.503 1.757a9.4 9.4 0 0 0-2.639 2.967 8.2 8.2 0 0 0-1.037 2.899 9.6 9.6 0 0 0 .21 4.258c.896 3.314 3.389 5.663 6.749 6.362 1.919.399 3.625.358 5.522-.132a7.63 7.63 0 0 0 3.446-1.888 7 7 0 0 0 1.509-1.977c.481-.92.675-1.814.62-2.85H-4.5a2.93 2.93 0 0 1-1.162 1.935 2.44 2.44 0 0 1-2.815.136 2.78 2.78 0 0 1-1.231-1.586c-.516-1.637-.539-3.16-.079-4.813a3.64 3.64 0 0 1 1.051-1.736 2.5 2.5 0 0 1 2.166-.686c.508.074.921.296 1.263.681.359.397.564.823.658 1.35.066.371.103.685.123 1.061h6.318C1.918 3.055 1.314 1.382 0 0"/></g></g></g><path id="path3544" d="M620.44 790.25h15.945v11.264H620.44z"/><path id="path3546" d="M620.44 741.82h15.945v42.64H620.44z"/><g id="g3548" transform="translate(587.41 779.96)scale(2.4328)"><path id="path3550" fill="#0056a8" d="M0 0a10.8 10.8 0 0 0 2.724 1.767c1.693.782 3.386.909 5.177.386C9.822 1.59 11.206.239 11.812-1.67a8.5 8.5 0 0 0 .417-2.693v-11.312H5.268v10.173c0 .34-.041.628-.143.954a1.92 1.92 0 0 1-1.128 1.252A2.626 2.626 0 0 1 .683-4.392a2.86 2.86 0 0 1-.412-1.517v-9.766h-6.742V1.853h6.325z"/></g><g id="g3552" transform="translate(398.82 779.96)scale(2.4328)"><path id="path3554" fill="#0056a8" d="M0 0a10.9 10.9 0 0 0 2.722 1.767c1.694.782 3.388.909 5.178.386C9.822 1.59 11.206.239 11.812-1.67a8.5 8.5 0 0 0 .417-2.693v-11.312H5.268v10.173c0 .34-.043.628-.142.954a1.93 1.93 0 0 1-1.131 1.252A2.624 2.624 0 0 1 .683-4.392 2.85 2.85 0 0 1 .27-5.909v-9.766h-6.741V1.853h6.324z"/></g><g id="g3556" transform="translate(-406.36 -901.55)scale(2.4328)"><g id="g3558" fill="#0056a8" clip-path="url(#clipPath3560)"><g id="g3564" fill="#0056a8" transform="translate(372.28 681.95)"><path id="path3566" fill="#0056a8" d="M0 0c.502-.085.922-.19 1.404-.351.403-.132.68-.444.768-.857a1.28 1.28 0 0 0-.355-1.204 2 2 0 0 0-1.166-.597 3.35 3.35 0 0 0-1.755.166 2.4 2.4 0 0 0-.745.424 1.9 1.9 0 0 0-.612.921 2.9 2.9 0 0 0-.131.935h-6.419v-.374c0-.604.094-1.116.306-1.681a5.4 5.4 0 0 1 1.429-2.127c.869-.813 1.776-1.32 2.919-1.647 2.373-.676 4.51-.81 6.949-.436a9.6 9.6 0 0 1 3.117 1.016c.453.235.816.478 1.207.806C8.65-3.55 9.293-1.328 8.6.827a4.26 4.26 0 0 1-1.321 1.998 7.4 7.4 0 0 1-2.903 1.582 52 52 0 0 1-.704.199 31 31 0 0 1-3.968.844c-.378.056-.696.117-1.069.204a2.5 2.5 0 0 0-.475.162.784.784 0 0 0-.392 1.037l.03.06q.318.567.94.747a3.4 3.4 0 0 0 2.127-.051 1.59 1.59 0 0 0 1.093-1.597h6.185a6.1 6.1 0 0 1-.378 2.116A3.76 3.76 0 0 1 6.5 9.88a6 6 0 0 1-1.652.945 9 9 0 0 1-1.793.498 18.3 18.3 0 0 1-4.404.249 14 14 0 0 1-2.503-.364 7.5 7.5 0 0 1-3.053-1.466 4.87 4.87 0 0 1-1.663-2.326 4.2 4.2 0 0 1-.246-1.282 4.9 4.9 0 0 1 .361-2.139c.51-1.28 1.416-2.187 2.698-2.698A10.6 10.6 0 0 1-3.852.728C-2.502.449-1.359.232 0 0"/></g></g></g><g id="g3568" transform="translate(312.66 760.21)scale(2.4328)"><path id="path3570" fill="#0056a8" d="M0 0h-4.498v5.751h2.923c.555 0 1.025.013 1.58.044A2.4 2.4 0 0 1 1.871 6.8c.243.329.38.661.438 1.067.048.342.055.634.021.976a2.47 2.47 0 0 1-2.47 2.24h-4.358V-7.558h-7.446V16.98H.227c.484 0 .893-.009 1.376-.036 3.229-.173 5.889-1.966 7.257-4.896.712-1.525.954-2.991.771-4.665C9.245 3.859 6.78 1.118 3.317.359A14.7 14.7 0 0 0 0 0"/></g><g id="g3572" transform="translate(550.47 785.28)scale(2.4328)"><path id="path3574" fill="#0056a8" d="M0 0c-.693.11-1.285.155-1.986.155S-3.279.11-3.973 0c-2.012-.315-3.642-1.124-5.111-2.534-1.572-1.511-2.433-3.299-2.63-5.47a10 10 0 0 1 .342-3.771c.55-1.978 1.583-3.506 3.213-4.754a8.3 8.3 0 0 1 3.462-1.607 12 12 0 0 1 2.711-.291c.96 0 1.772.085 2.712.291a8.3 8.3 0 0 1 3.461 1.607L.421-12.425a2.64 2.64 0 0 0-3.49-1.324 2.54 2.54 0 0 0-1.325 1.324 6.1 6.1 0 0 0-.496 1.691 9.8 9.8 0 0 0 .076 3.523c.123.635.335 1.153.689 1.694a2.56 2.56 0 0 0 4.277 0 4.5 4.5 0 0 0 .69-1.694 9.8 9.8 0 0 0 .076-3.523 6.2 6.2 0 0 0-.497-1.691l3.766-4.104c1.631 1.248 2.664 2.776 3.213 4.754.359 1.289.461 2.438.342 3.771-.197 2.171-1.056 3.959-2.629 5.47C3.643-1.122 2.014-.315 0 0"/></g><g id="g3576" transform="translate(-406.36 -901.55)scale(2.4328)"><g id="g3578" fill="#0056a8" clip-path="url(#clipPath3580)"><g id="g3584" transform="translate(362.55 676.88)"><path id="path3586" fill="#0056a8" d="M0 0a82 82 0 0 0-.182 4.116C-.22 6.02-.243 7.626-.256 9.529a11.3 11.3 0 0 1-.378 2.888c-.337 1.303-1.1 2.293-2.275 2.951a7.4 7.4 0 0 1-2.155.813c-2.528.541-4.759.586-7.306.144a9 9 0 0 1-1.98-.574c-1.552-.642-2.621-1.812-3.119-3.415a4.2 4.2 0 0 1-.169-1.808 1 1 0 0 1 .096-.323l5.898-.144c-.015.376.034.694.161 1.047.193.538.573.92 1.111 1.116a3.45 3.45 0 0 0 2.355.04 1.6 1.6 0 0 0 1.065-1.082 1.04 1.04 0 0 0-.148-.94 1.4 1.4 0 0 0-.674-.527 5 5 0 0 0-.506-.164c-.82-.221-1.52-.373-2.357-.512a47 47 0 0 1-1.878-.346 21 21 0 0 1-2.504-.653 5.2 5.2 0 0 1-2.028-1.183 4.27 4.27 0 0 1-1.403-2.662 5.4 5.4 0 0 1 .081-2.039c.413-1.828 1.682-3.18 3.483-3.704 1.996-.579 3.869-.484 5.796.294.938.377 1.652.9 2.297 1.678l-.416 3.013a2.55 2.55 0 0 0-1.165-.994 4.4 4.4 0 0 0-1.4-.368 3.1 3.1 0 0 0-1.203.104 1.7 1.7 0 0 0-.832.5 1.5 1.5 0 0 0-.38.736 1.17 1.17 0 0 0 .397 1.16c.231.197.457.329.74.433.685.252 1.27.441 1.971.64.848.239 1.55.498 2.35.866a6.7 6.7 0 0 0-.014-1.828 2.9 2.9 0 0 0-.464-1.249l.416-3.013c.129-.428.248-.786.394-1.205.083-.235.191-.417.355-.6H.453A2.8 2.8 0 0 0 0 0"/></g><g id="g3588" transform="translate(323.2 676.88)"><path id="path3590" fill="#0056a8" d="M0 0a82 82 0 0 0-.182 4.116c-.039 1.904-.061 3.51-.074 5.413a11.2 11.2 0 0 1-.378 2.888c-.337 1.303-1.099 2.293-2.275 2.951a7.4 7.4 0 0 1-2.155.813c-2.528.541-4.759.586-7.307.144a9 9 0 0 1-1.979-.574c-1.552-.642-2.621-1.812-3.119-3.415a4.2 4.2 0 0 1-.168-1.808.9.9 0 0 1 .095-.323l5.898-.144c-.014.376.034.694.161 1.047.193.538.573.92 1.111 1.116a3.44 3.44 0 0 0 2.354.04 1.61 1.61 0 0 0 1.068-1.082c.101-.331.05-.657-.15-.94a1.4 1.4 0 0 0-.674-.527 5 5 0 0 0-.507-.164 23 23 0 0 0-2.356-.512 48 48 0 0 1-1.879-.346 21 21 0 0 1-2.504-.653 5.25 5.25 0 0 1-2.027-1.183c-.796-.728-1.25-1.591-1.403-2.662a5.4 5.4 0 0 1 .082-2.039c.411-1.828 1.682-3.18 3.481-3.704 1.998-.579 3.869-.484 5.797.294.937.377 1.653.9 2.298 1.678l-.416 3.013a2.55 2.55 0 0 0-1.167-.994 4.4 4.4 0 0 0-1.398-.368 3.1 3.1 0 0 0-1.204.104 1.7 1.7 0 0 0-.831.5c-.201.216-.32.448-.381.736-.092.442.052.867.397 1.16.23.197.456.329.74.433.685.252 1.271.441 1.972.64.848.239 1.549.498 2.35.866a6.7 6.7 0 0 0-.015-1.828 2.95 2.95 0 0 0-.463-1.249l.416-3.013c.128-.428.247-.786.394-1.205.082-.235.19-.417.354-.6H.453A2.8 2.8 0 0 0 0 0"/></g></g></g></g></svg>