<svg xmlns="http://www.w3.org/2000/svg" viewBox="248 250 295 120"><path fill="#005596" fill-rule="evenodd" d="m395.81 264.05-1.62-1.86c-.43-.69-.86-1.39-1.29-2.08l.3 2.43-.1 2.46.05.04.86-1.05c.26 1.16.4 2.29.41 3.28 1.06 16.87-18.17 42.12-48.11 61.19-5.98 3.81-11.95 7.11-17.81 9.9-3.18-1.93-6.42-3.95-9.71-6.04-15.56-9.91-30.16-20.77-41.32-30.45 5.26-6.1 11.78-12.28 19.36-18.21 4.52 2.12 9.32 4.59 14.01 7.15l.27-.33a290 290 0 0 0-13.88-7.14c4.24-3.3 8.8-6.52 13.66-9.6 29.55-18.76 55.89-18.01 62.21-8.09 7.02 11.03-5.94 32.57-24.25 48.56l4.82 3.85c20.43-18.11 28.62-40.4 20.48-52.09-7.47-10.73-28.8-21.43-68.27 4.3-5.27 3.44-10.12 6.89-14.57 10.33-19.88-8.85-34.71-11.85-38.13-6.72-3.43 5.15 2.84 15.72 15.51 28.1-13.84 16.73-17.23 31.86-10.66 42.18 8.73 13.7 36.48 12.27 66.72-1.86 39.03 22.3 60.69 26.35 65.16 18.69.55-.95.85-2.41.58-3.79l1.43.3v-.05l-1.61-1.86c-.43-.69-.86-1.39-1.29-2.08l.3 2.43-.1 2.46.05.04.87-1.07c.21 1.14-.18 2.48-.58 3.18-4.12 7.26-28.54-2.66-59.14-21.03 4.62-2.38 9.28-5.05 13.91-8 33.54-21.37 54.29-50.1 50.08-67.7l1.4.29v-.05ZM256.92 274.7c3-4.29 16.84-1.12 33.91 6.26-7.16 5.58-13.24 11.13-18.24 16.55-11.58-10.69-18.08-19.38-15.67-22.81m8.29 65.71c-5.38-7.91-1.76-20.43 8.41-33.81 9.88 8.89 22.67 18.45 37.26 27.45 4.04 2.49 7.93 4.82 11.67 6.98-26.26 11.1-49.19 11.36-57.34-.62"/><path fill="#005596" d="M419.39 345.86h-23.14c-11.92 0-20.71-5.2-20.71-13.99 0-8.24 9.06-13.99 20.38-13.99s20.38 5.78 20.38 13.99c0 3.85-2.37 7.63-7.6 9.29v.08h10.68v4.62Zm-23.46-5.55c6.42 0 11.65-3.74 11.65-8.44s-5.23-8.44-11.65-8.44-11.65 3.74-11.65 8.44 5.23 8.44 11.65 8.44m50.75 5.55h-7.77v-2.54h-.11c-1.08 1.46-3.72 3-7.66 3-8.2 0-9.71-3.85-9.71-8.86v-10.33h8.09v9.17c0 2.16.05 4.93 4.21 4.93s4.85-2.35 4.85-4.78v-9.32h8.09v18.72Zm4.75-18.72h8.09v18.72h-8.09zm12.98 0h7.77v2.54h.11c1.08-1.46 3.72-3 7.66-3 8.2 0 9.71 3.85 9.71 8.86v10.32h-8.09v-9.17c0-2.16-.05-4.93-4.21-4.93s-4.85 2.35-4.85 4.78v9.32h-8.09v-18.72Zm46.3 6.05c-.81-.81-2.32-1.43-3.99-1.43-4.04 0-6.47 1.93-6.47 4.74s2.43 4.74 6.47 4.74c1.78 0 3.07-.65 3.99-1.43l5.34 4.01c-2.54 1.85-6.26 2.51-9.33 2.51-8.09 0-14.56-3.85-14.56-9.83s6.47-9.82 14.56-9.82c3.07 0 6.79.65 9.33 2.5zm19.29.47-5.05-6.62h-8.47l9.53 10.7v8.19h8.04v-8.19l9.53-10.7h-8.33zm-74.48-15.68c2.34 0 4.23 1.5 4.23 3.35s-1.9 3.35-4.23 3.35-4.23-1.5-4.23-3.35 1.9-3.35 4.23-3.35m-28.15 39.9c-.83.84-1.96 1.18-3.25 1.18-2.66 0-4.52-1.42-4.52-3.4s1.85-3.4 4.52-3.4c1.19 0 2.25.29 3.02 1.01l-.67.41c-.54-.6-1.47-.87-2.35-.87-2.28 0-3.7 1.24-3.7 2.85s1.42 2.86 3.7 2.86c.88 0 1.96-.31 2.58-1.01zm9.09-5.62c2.67 0 4.52 1.42 4.52 3.4s-1.85 3.4-4.52 3.4-4.52-1.42-4.52-3.4 1.85-3.4 4.52-3.4m0 6.25c2.29 0 3.71-1.24 3.71-2.86s-1.42-2.85-3.71-2.85-3.7 1.24-3.7 2.85 1.42 2.86 3.7 2.86m9.9-6.09h1.22l3.19 5.43 3.18-5.43h1.16v6.48h-.81v-5.71h-.03l-3.33 5.71h-.36l-3.38-5.71h-.02v5.71h-.82zm14.71 0h2.52c1.23 0 2.81.36 2.81 1.71 0 1.17-1.25 1.69-2.63 1.69h-1.89v3.07h-.81v-6.48Zm.81 2.85h1.85c.92 0 1.85-.29 1.85-1.14s-.96-1.16-1.9-1.16h-1.8v2.31Zm9.91-2.85h2.3c.69 0 3.11 0 3.11 1.7 0 1.23-1.27 1.57-2.23 1.66l2.54 3.11h-.93l-2.46-3.07h-1.52v3.07h-.81v-6.48Zm.82 2.85h1.73c1.72 0 2.05-.7 2.05-1.15s-.33-1.15-2.05-1.15h-1.73v2.31Zm10.15-2.85h5.35v.55h-4.53v2.31h4.24v.55h-4.24v2.53h4.73v.55h-5.55v-6.48Zm11.2 5.28c.43.54 1.14.81 2 .81 1.1 0 1.96-.49 1.96-1.27 0-1.81-4.51-.75-4.51-3.21 0-1.16 1.33-1.78 2.8-1.78.95 0 1.79.24 2.38.81l-.71.37c-.41-.42-.95-.64-1.7-.64-1.05 0-1.96.4-1.96 1.23 0 1.95 4.51.78 4.51 3.21 0 1.17-1.29 1.82-2.71 1.82-1.15 0-2.16-.27-2.84-.98l.78-.38Zm10.5 0c.43.54 1.14.81 2 .81 1.1 0 1.97-.49 1.97-1.27 0-1.81-4.51-.75-4.51-3.21 0-1.16 1.33-1.78 2.8-1.78.95 0 1.79.24 2.38.81l-.71.37c-.41-.42-.95-.64-1.7-.64-1.05 0-1.96.4-1.96 1.23 0 1.95 4.51.78 4.51 3.21 0 1.17-1.29 1.82-2.71 1.82-1.15 0-2.16-.27-2.84-.98l.78-.38Zm14.23-5.44c2.67 0 4.52 1.42 4.52 3.4s-1.85 3.4-4.52 3.4-4.52-1.42-4.52-3.4 1.85-3.4 4.52-3.4m0 6.25c2.29 0 3.71-1.24 3.71-2.86s-1.42-2.85-3.71-2.85-3.7 1.24-3.7 2.85 1.42 2.86 3.7 2.86m9.98-6.09h2.3c.69 0 3.11 0 3.11 1.7 0 1.23-1.27 1.57-2.23 1.66l2.54 3.11h-.93l-2.46-3.07h-1.52v3.07h-.81v-6.48Zm.82 2.85h1.73c1.72 0 2.05-.7 2.05-1.15s-.33-1.15-2.05-1.15h-1.73v2.31Z"/></svg>