<svg xmlns="http://www.w3.org/2000/svg" id="svg5872" width="169.727" height="25.812" viewBox="0 0 44.907 6.829"><g id="layer1" transform="translate(-112.826 -202.918)"><g id="g5928" transform="translate(.132 -.132)"><path id="path5095" d="M149.265 203.819h1.567v5.37h-1.567z" style="fill:#007b40;fill-opacity:1;fill-rule:nonzero;stroke:none;stroke-width:.35277778"/><path id="path5107" d="M154.383 209.045c.04.142.065.144.065.144h1.645c-.01-.077-.065-.144-.076-.21 0-.797.054-1.713-.692-2.144a1.7 1.7 0 0 0 .487-.52c.249-.432.26-1.063.076-1.528-.185-.454-.437-.872-1.364-.969h-3.227l-.02.006v5.366h1.541l.006-1.802c.347-.01.726-.013 1.083.067.61.23.411 1.026.476 1.59m-.8-2.774h-.737v-1.16h.872c.436 0 .753.195.753.608 0 .406-.31.552-.888.552" style="fill:#007b40;fill-opacity:1;fill-rule:nonzero;stroke:none;stroke-width:.35277778"/><path id="path5111" d="M136.437 209.198v-5.347h1.528v4.036h2.357v1.311z" style="fill:#007b40;fill-opacity:1;fill-rule:nonzero;stroke:none;stroke-width:.35277778"/><path id="path5115" d="M140.622 209.198v-5.347h1.528v4.036h2.357v1.311z" style="fill:#007b40;fill-opacity:1;fill-rule:nonzero;stroke:none;stroke-width:.35277778"/><path id="path5127" d="M145.27 209.196c.077-.21.162-.48.281-.68l1.57.002.243.673h1.688l-1.964-5.368h-1.57l-1.946 5.373zm.575-1.856.453-1.313c.183.427.339.884.509 1.317z" style="fill:#007b40;fill-opacity:1;fill-rule:nonzero;stroke:none;stroke-width:.35277778"/><path id="path5131" d="M129.142 205.827c-.454-.188-1.038-.132-1.374-.564-.065-.166.043-.321.184-.399a.9.9 0 0 1 .714-.033c.195.078.443.222.497.454h1.452a1.3 1.3 0 0 0-.163-.764c-.173-.31-.498-.564-.8-.697-.964-.354-2.263-.343-3.042.41-.357.343-.552.819-.444 1.34.162.718.799 1.157 1.55 1.358.5.18 1.07.18 1.47.567.058.104.097.221.032.332a.68.68 0 0 1-.379.32 1.08 1.08 0 0 1-1.082-.243c-.162-.122-.194-.347-.238-.513-.642 0-.886.007-1.488.007-.043.232.038.517.103.717.281.763 1.06 1.162 1.796 1.239 1.094.078 2.24-.144 2.771-1.206.173-.421.184-1.019-.054-1.406-.325-.587-.941-.775-1.505-.919" style="fill:#007b40;fill-opacity:1;fill-rule:nonzero;stroke:none;stroke-width:.35277778"/><path id="path5135" d="M131.07 203.858h1.586v3.228c0 .532.245.99.955.99.623 0 .806-.405.806-.99v-3.228h1.586v3.16c0 1.73-.641 2.376-2.392 2.376-1.633 0-2.541-.526-2.541-2.384z" style="fill:#007b40;fill-opacity:1;fill-rule:nonzero;stroke:none;stroke-width:.35277778"/><path id="path5139" d="M156.7 208.353h.306c.055.002.111.029.127.09.007.025.019.065.005.114-.014.048-.038.066-.075.089.02.013.055.026.061.078.003.023.005.097.005.126 0 .031.01.038.022.046v.021h-.122a.1.1 0 0 1-.015-.053v-.113c-.001-.038-.03-.057-.068-.057h-.134v.223h-.113zm.113.245h.155a.074.074 0 0 0 .067-.085c0-.04-.018-.063-.068-.063h-.154z" style="fill:#007b40;fill-opacity:1;fill-rule:nonzero;stroke:none;stroke-width:.35277778"/><path id="path5143" d="M156.92 208.07a.555.555 0 0 0-.55.56c0 .31.246.562.55.562a.555.555 0 0 0 .548-.561.555.555 0 0 0-.549-.562m0 1.007a.44.44 0 0 1-.436-.445.44.44 0 0 1 .436-.446c.24 0 .436.2.436.446a.44.44 0 0 1-.436.445" style="fill:#007b40;fill-opacity:1;fill-rule:nonzero;stroke:none;stroke-width:.35277778"/><path id="path5147" d="M123.786 208.366h.31c.055.002.112.029.128.09a.2.2 0 0 1 .005.116c-.014.049-.038.067-.076.09.02.013.056.027.062.079.003.023.005.098.005.127 0 .032.009.04.021.047v.021h-.123a.14.14 0 0 1-.015-.053 1 1 0 0 1 0-.115c-.002-.038-.03-.057-.069-.057h-.134v.225h-.115zm.114.247h.157a.075.075 0 0 0 .068-.085c0-.04-.018-.064-.07-.064h-.155z" style="fill:#007b40;fill-opacity:1;fill-rule:nonzero;stroke:none;stroke-width:.35277778"/><path id="path5151" d="M124.007 208.08a.56.56 0 0 0-.554.567.56.56 0 0 0 .554.567.56.56 0 0 0 .555-.567.56.56 0 0 0-.555-.568m0 1.018a.445.445 0 0 1-.44-.45c0-.249.197-.45.44-.45.244 0 .44.201.44.45 0 .248-.196.45-.44.45" style="fill:#007b40;fill-opacity:1;fill-rule:nonzero;stroke:none;stroke-width:.35277778"/><path id="path5155" d="M123.244 204.661c-1.851-1.394-4.373-1.77-6.743-1.262-1.44.388-3.28 1.04-3.648 2.778-.13.853.216 1.594.877 2.137 1.786 1.361 4.188 1.67 6.483 1.273 1.537-.344 3.463-.92 3.907-2.734.12-.864-.216-1.627-.876-2.192m-4.752 3.221-1.775-1.03-.033.045v1.981c-.119.011-.26.011-.378 0v-1.981l-.087.01-1.667.997a1.4 1.4 0 0 1-.184-.332l1.743-1.051-.087-.089-1.656-.974c0-.11.108-.2.141-.321.606.288 1.19.708 1.786.996l.006-2.147h.373l.01 2.17.098-.023 1.689-1.007c.097.089.14.21.183.321-.573.365-1.168.686-1.742 1.051.552.377 1.169.709 1.742 1.063zm4.059-.985a1 1 0 0 1-.877.598c-.27.01-.476-.111-.682-.255.173.221.314.487.293.808-.022.288-.141.52-.358.72a1 1 0 0 1-.736.22 1 1 0 0 1-.833-.708c-.108-.365 0-.73.238-.996-.292.222-.812.321-1.158.1s-.552-.598-.487-1.018c.032-.343.303-.698.628-.808a1.02 1.02 0 0 1 1.039.221c.184.221.303.465.28.775 0 .243-.107.453-.259.642.282-.189.736-.321 1.072-.133l.216.133c-.195-.277-.357-.698-.195-1.074.065-.133.13-.265.25-.387a1.13 1.13 0 0 1-.78.265c-.379-.022-.714-.32-.844-.675a1.04 1.04 0 0 1 .184-.985c.26-.32.682-.41 1.06-.299.217.089.455.255.563.487.098.222.141.52.065.775-.065.144-.13.288-.248.41l.01.01c.217-.176.466-.276.769-.254.238.055.476.133.65.365.226.277.291.72.14 1.063" style="fill:#007b40;fill-opacity:1;fill-rule:nonzero;stroke:none;stroke-width:.35277778"/><path id="path5159" d="M120.895 204.705c.065.188.086.432-.022.609a.67.67 0 0 1-.433.343c-.206.045-.4 0-.552-.121-.227-.178-.314-.465-.227-.753.076-.232.292-.432.53-.465.292-.022.574.11.704.387" style="fill:#007b40;fill-opacity:1;fill-rule:nonzero;stroke:none;stroke-width:.35277778"/><path id="path5163" d="M122.28 206.244c.076.2.033.443-.065.608-.14.2-.346.322-.584.31-.249 0-.477-.177-.584-.398-.087-.177-.066-.442.021-.609.119-.243.357-.343.585-.365.27.022.54.188.627.454" style="fill:#007b40;fill-opacity:1;fill-rule:nonzero;stroke:none;stroke-width:.35277778"/><path id="path5167" d="M119.401 206.023c.14.133.184.32.195.53-.022.277-.227.51-.476.61-.173.055-.38.01-.541-.067a.7.7 0 0 1-.314-.465c-.022-.221.021-.454.184-.608.238-.266.703-.266.952 0" style="fill:#007b40;fill-opacity:1;fill-rule:nonzero;stroke:none;stroke-width:.35277778"/><path id="path5171" d="M120.787 207.517c.13.144.183.32.183.52a.75.75 0 0 1-.335.542.69.69 0 0 1-.639.012.67.67 0 0 1-.335-.466.69.69 0 0 1 .152-.608.675.675 0 0 1 .974 0" style="fill:#007b40;fill-opacity:1;fill-rule:nonzero;stroke:none;stroke-width:.35277778"/></g></g></svg>