<svg xmlns="http://www.w3.org/2000/svg" xml:space="preserve" id="Layer_1" x="0" y="0" viewBox="0 195 500 110"><g id="watermark_1_"><g id="watermark" style="opacity:.61"><path d="m213.765 461.172-5.561 12.845h-2.936l-5.542-12.845h3.212l3.908 9.175 3.964-9.175zm9.742 8.569h-7.469c.275 1.23 1.321 1.982 2.826 1.982 1.046 0 1.798-.312 2.477-.954l1.523 1.651c-.917 1.046-2.294 1.597-4.074 1.597-3.413 0-5.634-2.147-5.634-5.083 0-2.954 2.257-5.083 5.267-5.083 2.899 0 5.138 1.945 5.138 5.12.001.22-.035.532-.054.77m-7.505-1.67h4.863c-.202-1.248-1.138-2.055-2.422-2.055-1.304 0-2.239.789-2.441 2.055m8.733.863c0-2.973 2.294-5.083 5.505-5.083 2.074 0 3.707.899 4.423 2.514l-2.22 1.193c-.532-.936-1.321-1.358-2.221-1.358-1.45 0-2.587 1.009-2.587 2.734s1.138 2.734 2.587 2.734c.899 0 1.688-.404 2.221-1.358l2.22 1.211c-.716 1.578-2.349 2.495-4.423 2.495-3.211.001-5.505-2.109-5.505-5.082m18.093 4.459c-.587.422-1.45.624-2.331.624-2.33 0-3.688-1.193-3.688-3.542v-4.055h-1.523v-2.202h1.523v-2.404h2.863v2.404h2.459v2.202h-2.459v4.019c0 .844.458 1.303 1.229 1.303.422 0 .844-.128 1.156-.367zm19.646-9.396v2.643c-.238-.018-.422-.037-.642-.037-1.578 0-2.624.862-2.624 2.753v4.661h-2.863v-9.873h2.734v1.303c.697-.954 1.872-1.45 3.395-1.45m.825 8.533 1.009-2.239c1.083.789 2.697 1.339 4.239 1.339 1.762 0 2.477-.587 2.477-1.376 0-2.404-7.469-.752-7.469-5.524 0-2.184 1.762-4 5.413-4 1.615 0 3.267.385 4.459 1.138l-.918 2.257c-1.193-.679-2.422-1.009-3.56-1.009-1.761 0-2.44.66-2.44 1.468 0 2.367 7.468.734 7.468 5.45 0 2.147-1.78 3.982-5.45 3.982-2.035.001-4.09-.605-5.228-1.486m22.129-2.789h-7.469c.275 1.23 1.321 1.982 2.826 1.982 1.046 0 1.798-.312 2.477-.954l1.523 1.651c-.918 1.046-2.294 1.597-4.074 1.597-3.413 0-5.634-2.147-5.634-5.083 0-2.954 2.257-5.083 5.267-5.083 2.9 0 5.138 1.945 5.138 5.12.002.22-.035.532-.054.77m-7.505-1.67h4.863c-.202-1.248-1.138-2.055-2.422-2.055-1.303 0-2.239.789-2.441 2.055m19.084 1.67h-7.469c.275 1.23 1.321 1.982 2.826 1.982 1.046 0 1.798-.312 2.477-.954l1.523 1.651c-.918 1.046-2.294 1.597-4.074 1.597-3.413 0-5.634-2.147-5.634-5.083 0-2.954 2.257-5.083 5.267-5.083 2.899 0 5.138 1.945 5.138 5.12.001.22-.036.532-.054.77m-7.506-1.67h4.863c-.202-1.248-1.138-2.055-2.422-2.055-1.303 0-2.239.789-2.441 2.055m13.707 2.074-1.377 1.358v2.514h-2.862v-13.616h2.862v7.707l4.185-3.964h3.413l-4.111 4.184 4.478 5.689h-3.469zm-46.607 5.214-2.86-2.86a6 6 0 0 1-1.534 1.284 5 5 0 0 1-.283.199l3.027 3.027a1.166 1.166 0 1 0 1.65-1.65" style="fill:#fff"/><path d="M249.984 463.244a1.3 1.3 0 0 1 .921-.275 1.285 1.285 0 0 0-1.745.209c-.051 0-.1.006-.151.008a.56.56 0 0 0 .064-.255.56.56 0 0 0-.346-.519.78.78 0 0 1 .057.786 5.417 5.417 0 0 0 .39 10.82 5.42 5.42 0 0 0 5.42-5.42 5.414 5.414 0 0 0-4.61-5.354m-2.001 1.412c.435 0 .844.112 1.199.309a2.37 2.37 0 0 1 3.083.419 2.47 2.47 0 0 0-3.09-.131 2.46 2.46 0 0 0-1.464-.478c-.3 0-.588.054-.854.152a2.5 2.5 0 0 1 1.126-.271m3.789 4.442c.115.305.181.634.181.979a2.777 2.777 0 0 1-5.555 0c0-.345.066-.674.181-.979a2.165 2.165 0 0 1 1.133-4.014c.565 0 1.078.218 1.463.572a2.16 2.16 0 0 1 1.464-.572 2.165 2.165 0 0 1 1.133 4.014" style="fill:#fff"/><path d="M251.666 467.061a.902.902 0 1 1-.614-.854.494.494 0 0 0 .595.676 1 1 0 0 1 .019.178m-3.411 0a.681.681 0 1 1-.464-.646.374.374 0 0 0 .45.512 1 1 0 0 1 .014.134m-5.347.769h.616v.616h-.616zm11.919 0h.616v.616h-.616z" style="fill:#fff"/><path d="M255.205 468.082h-.14a5.896 5.896 0 0 0-5.89-5.89 5.896 5.896 0 0 0-5.89 5.89h-.14a6 6 0 0 1 1.766-4.264 6 6 0 0 1 4.264-1.766 6 6 0 0 1 4.264 1.766 6 6 0 0 1 1.766 4.264" style="fill:#fff"/><path d="M248.868 461.814h.616v.616h-.616z" style="fill:#fff"/><path d="M244.95 462.052h8.45v.14h-8.45z" style="fill:#fff"/><path d="M245.174 462.15a.196.196 0 1 1-.393 0 .196.196 0 0 1 .393 0m8.422 0a.196.196 0 1 1-.393 0 .196.196 0 0 1 .393 0m60.76 11.259c0 1.559-2.364 1.559-2.364 0 .001-1.558 2.364-1.558 2.364 0m-152.617-6.86 1.772 6.088 1.855-6.088h2.215l-2.823 8.14h-2.33l-.837-2.396-.722-2.708-.722 2.708-.837 2.396h-2.33l-2.839-8.14h2.231l1.855 6.088 1.756-6.088zm14.974 0 1.772 6.088 1.855-6.088h2.215l-2.823 8.14h-2.33l-.837-2.396-.722-2.708-.722 2.708-.837 2.396h-2.33l-2.839-8.14h2.231l1.855 6.088 1.756-6.088zm14.974 0 1.772 6.088 1.855-6.088h2.215l-2.823 8.14h-2.33l-.837-2.396-.722-2.708-.722 2.708-.837 2.396h-2.33l-2.839-8.14h2.231l1.855 6.088 1.756-6.088zm9.221 6.971c0 1.559-2.364 1.559-2.364 0 .001-1.558 2.364-1.558 2.364 0m121.802-.111c-.935.919-1.919 1.28-3.117 1.28-2.346 0-4.3-1.411-4.3-4.282s1.953-4.284 4.3-4.284c1.149 0 2.035.329 2.921 1.199l-1.264 1.329a2.45 2.45 0 0 0-1.623-.64c-1.346 0-2.33.985-2.33 2.396 0 1.542 1.05 2.362 2.297 2.362.64 0 1.28-.18 1.772-.672zm9.095-2.937c0 2.33-1.591 4.217-4.217 4.217s-4.201-1.887-4.201-4.217c0-2.314 1.609-4.217 4.185-4.217 2.577 0 4.233 1.903 4.233 4.217m-6.416 0c0 1.231.739 2.38 2.199 2.38s2.199-1.149 2.199-2.38c0-1.215-.854-2.396-2.199-2.396-1.444.001-2.199 1.182-2.199 2.396m13.183 4.217v-4.332c0-1.068-.559-2.035-1.658-2.035-1.082 0-1.722.967-1.722 2.035v4.332h-2.003v-8.107h1.855l.148.985c.426-.82 1.362-1.116 2.133-1.116.969 0 1.937.394 2.396 1.51.723-1.149 1.658-1.478 2.708-1.478 2.297 0 3.43 1.412 3.43 3.84v4.365h-2.003v-4.365c0-1.066-.442-1.97-1.526-1.97-1.082 0-1.756.935-1.756 2.003v4.332h-2.002z" style="fill:#fff"/></g><g style="opacity:.61"><path d="M345.988 431.299c-.006-1.224-.959-2.121-2.189-2.14-.924-.014-.832.12-.834-.867-.003-1.097-.007-2.194.003-3.292a1.4 1.4 0 0 0-.362-.976c-2.342-2.668-4.678-5.342-7.019-8.011-.12-.137-.275-.244-.414-.366h-18.641c-.794.293-1.14.868-1.138 1.709.01 3.748.004 7.496.004 11.243 0 .556-.003.589-.55.551-1.497-.102-2.516.986-2.497 2.492.044 3.476.013 6.953.014 10.429.001 1.58.867 2.443 2.45 2.449.582.002.582.002.582.6q-.001 3.328.001 6.657c.001 1.192.58 1.771 1.768 1.771h24.04q1.753-.001 1.757-1.745l.001-6.768c0-.512.002-.511.52-.515.271-.002.541.008.809-.058.996-.246 1.69-1.044 1.694-2.069q.025-5.546.001-11.094m-28.451-14.137h16.01c.548 0 .554.007.554.561l.001 6.73c.001.811.249 1.059 1.06 1.059l5.731.001c.458 0 .479.021.481.483q.004 1.331 0 2.662c-.001.477-.024.498-.504.499h-23.331c-.55 0-.552-.001-.552-.561v-10.871c0-.559.004-.563.55-.563m23.285 34.417h-23.263c-.572 0-.574-.002-.574-.579q-.002-2.995.001-5.991c0-.464.023-.486.478-.487h23.41c.478 0 .499.02.499.503q.002 2.996 0 5.991c.002.558-.003.563-.551.563" style="fill:#fff"/><path d="M327.418 417.053h1.757v1.054h-1.757zm-1.756 1.054h1.757v1.054h-1.757zm1.756 1.054h1.757v1.054h-1.757zm-1.756 1.054h1.757v1.054h-1.757zm1.756 1.054h1.757v1.054h-1.757zm-1.756 1.054h1.757v1.054h-1.757zm1.756 1.055h1.757v1.054h-1.757zm-1.756 1.054h1.757v1.054h-1.757zm1.756 1.054h1.757v1.054h-1.757zm-1.756 1.054h1.757v1.054h-1.757zm1.756 1.054h1.757v1.054h-1.757zm-1.756 1.054h1.757v1.054h-1.757zm-138.025 2.651c-.006-1.224-.959-2.121-2.189-2.14-.924-.014-.832.12-.834-.867-.003-1.097-.007-2.194.003-3.292a1.4 1.4 0 0 0-.362-.976c-2.342-2.668-4.678-5.342-7.019-8.011-.12-.137-.275-.244-.414-.366h-18.641c-.794.293-1.14.868-1.138 1.709.01 3.748.004 7.496.004 11.243 0 .556-.003.589-.55.551-1.497-.102-2.516.986-2.497 2.492.044 3.476.013 6.953.014 10.429.001 1.58.867 2.443 2.45 2.449.582.002.582.002.582.6q-.001 3.328.001 6.657c.001 1.192.58 1.771 1.768 1.771h24.04q1.753-.001 1.757-1.745l.001-6.768c0-.512.002-.511.52-.515.271-.002.541.008.809-.058.996-.246 1.69-1.044 1.694-2.069.016-3.697.019-7.396.001-11.094m-28.45-14.137h16.01c.548 0 .554.007.554.561l.001 6.73c.001.811.249 1.059 1.06 1.059l5.731.001c.458 0 .479.021.481.483q.004 1.331 0 2.662c-.001.477-.024.498-.504.499h-23.331c-.55 0-.552-.001-.552-.561v-10.871c-.001-.559.003-.563.55-.563m23.285 34.417h-23.263c-.572 0-.574-.002-.574-.579q-.002-2.995.001-5.991c0-.464.023-.486.478-.487h23.41c.478 0 .499.02.499.503q.002 2.996 0 5.991c.001.558-.004.563-.551.563" style="fill:#fff"/><path d="M159.779 440.669v-7.897h2.779q.563 0 1.053.182.49.181.855.513.364.33.573.789.21.458.21 1.009 0 .563-.21 1.02t-.573.789a2.6 2.6 0 0 1-.855.513 3 3 0 0 1-1.053.182h-1.29v2.901zm2.801-4.313q.585 0 .882-.331a1.1 1.1 0 0 0 .298-.761q0-.21-.072-.408a.9.9 0 0 0-.221-.347 1.1 1.1 0 0 0-.37-.237 1.4 1.4 0 0 0-.518-.089h-1.312v2.173zm3.728-3.585h1.731l3.177 5.294h.088l-.088-1.522v-3.772h1.478v7.897h-1.566l-3.353-5.592h-.088l.088 1.522v4.07h-1.467zm11.614 3.563h3.872q.033.133.055.32.022.188.022.375 0 .76-.231 1.434a3.3 3.3 0 0 1-.728 1.202 3.65 3.65 0 0 1-1.268.871q-.739.309-1.688.309a4.3 4.3 0 0 1-1.622-.309 4.03 4.03 0 0 1-2.217-2.167 4.1 4.1 0 0 1-.331-1.649q0-.893.331-1.649a4.1 4.1 0 0 1 .894-1.307 4 4 0 0 1 1.323-.86 4.3 4.3 0 0 1 1.622-.309q.96 0 1.715.331a3.9 3.9 0 0 1 1.296.915l-1.025 1.004a2.7 2.7 0 0 0-.861-.623q-.474-.215-1.136-.215a2.8 2.8 0 0 0-1.026.193 2.6 2.6 0 0 0-.85.546 2.6 2.6 0 0 0-.579.855 2.8 2.8 0 0 0-.215 1.119q0 .618.215 1.12a2.55 2.55 0 0 0 1.439 1.401 2.8 2.8 0 0 0 1.037.193q.628 0 1.064-.182.435-.182.744-.469.222-.198.381-.502.16-.303.248-.678h-2.482v-1.269zm46.097-5.035c-.006-1.224-.959-2.121-2.189-2.14-.924-.014-.832.12-.834-.867-.003-1.097-.007-2.194.003-3.292a1.4 1.4 0 0 0-.362-.976c-2.342-2.668-4.678-5.342-7.019-8.011-.12-.137-.275-.244-.414-.366h-18.641c-.794.293-1.14.868-1.138 1.709.01 3.748.004 7.496.004 11.243 0 .556-.003.589-.55.551-1.497-.102-2.516.986-2.497 2.492.044 3.476.013 6.953.014 10.429.001 1.58.867 2.443 2.45 2.449.582.002.582.002.582.6q-.001 3.328.001 6.657c.001 1.192.58 1.771 1.768 1.771h24.04q1.753-.001 1.757-1.745l.001-6.768c0-.512.002-.511.52-.515.271-.002.541.008.809-.058.997-.246 1.69-1.044 1.694-2.069q.025-5.546.001-11.094m-28.451-14.137h16.01c.548 0 .554.007.554.561l.001 6.73c.001.811.249 1.059 1.06 1.059l5.731.001c.458 0 .479.021.481.483q.004 1.331 0 2.662c-.001.477-.024.498-.504.499H195.57c-.55 0-.552-.001-.552-.561v-10.871c0-.559.004-.563.55-.563m23.286 34.417h-23.263c-.572 0-.574-.002-.574-.579q-.002-2.995.001-5.991c0-.464.023-.486.478-.487h23.41c.478 0 .499.02.499.503q.002 2.996 0 5.991c.001.558-.004.563-.551.563" style="fill:#fff"/><path d="M205.111 432.771h1.699l2.967 7.897h-1.644l-.651-1.886h-3.044l-.651 1.886h-1.643zm1.886 4.644-.706-1.974-.287-.96h-.088l-.287.96-.706 1.974zm4.334-2.879a.92.92 0 0 1-.657-.271.9.9 0 0 1-.27-.656.9.9 0 0 1 .27-.656.9.9 0 0 1 .298-.198.9.9 0 0 1 .359-.072q.386 0 .662.27.276.271.276.656c0 .385-.092.476-.276.656a.9.9 0 0 1-.662.271m-.716 6.133v-5.404h1.445v5.404zm50.429-9.37c-.006-1.224-.959-2.121-2.189-2.14-.924-.014-.832.12-.834-.867-.003-1.097-.007-2.194.003-3.292a1.4 1.4 0 0 0-.362-.976c-2.342-2.668-4.678-5.342-7.019-8.011-.12-.137-.275-.244-.414-.366h-18.641c-.794.293-1.14.868-1.138 1.709.01 3.748.004 7.496.004 11.243 0 .556-.003.589-.55.551-1.497-.102-2.516.986-2.497 2.492.044 3.476.013 6.953.014 10.429.001 1.58.867 2.443 2.45 2.449.582.002.582.002.582.6q-.001 3.328.001 6.657c.001 1.192.58 1.771 1.768 1.771h24.04q1.753-.001 1.757-1.745l.001-6.768c0-.512.002-.511.52-.515.271-.002.541.008.809-.058.996-.246 1.69-1.044 1.694-2.069q.025-5.546.001-11.094m-28.451-14.137h16.01c.548 0 .554.007.554.561l.001 6.73c.001.811.249 1.059 1.06 1.059l5.731.001c.458 0 .479.021.481.483q.004 1.331 0 2.662c-.001.477-.024.498-.504.499h-23.331c-.55 0-.552-.001-.552-.561v-10.871c-.001-.559.004-.563.55-.563m23.285 34.417h-23.263c-.572 0-.574-.002-.574-.579q-.002-2.995.001-5.991c0-.464.023-.486.478-.487h23.41c.478 0 .499.02.499.503q.002 2.996 0 5.991c.002.558-.003.563-.551.563" style="fill:#fff"/><path d="M236.361 440.845q-.507 0-.971-.143a2.8 2.8 0 0 1-.849-.43 3 3 0 0 1-.673-.7 3.4 3.4 0 0 1-.452-.965l1.401-.551q.154.596.54.987.386.392 1.015.392.231 0 .447-.061.215-.06.386-.176c.171-.116.204-.175.27-.292a.8.8 0 0 0 .099-.408 1 1 0 0 0-.077-.397.94.94 0 0 0-.259-.331 2.3 2.3 0 0 0-.475-.298 7 7 0 0 0-.722-.298l-.485-.176a3.7 3.7 0 0 1-.645-.298 3 3 0 0 1-.59-.452 2.2 2.2 0 0 1-.436-.623 1.86 1.86 0 0 1-.171-.81 2.07 2.07 0 0 1 .7-1.572q.336-.303.805-.474c.469-.171.66-.171 1.042-.171q.595 0 1.031.16t.739.408.491.546.276.563l-1.312.551a1.4 1.4 0 0 0-.402-.596q-.293-.264-.8-.265-.486 0-.805.226a.7.7 0 0 0-.32.59q0 .353.309.601t.982.48l.497.165q.474.166.866.381.391.214.673.513a2.1 2.1 0 0 1 .43.678q.15.38.149.877 0 .618-.248 1.064a2.3 2.3 0 0 1-.634.734 2.8 2.8 0 0 1-.872.43 3.5 3.5 0 0 1-.95.141m3.155-8.074h1.61l1.633 4.754.287 1.015h.088l.309-1.015 1.699-4.754h1.61l-2.879 7.897h-1.566zm11.581 3.563h3.871q.033.133.055.32.023.188.023.375 0 .76-.232 1.434a3.3 3.3 0 0 1-.728 1.202 3.6 3.6 0 0 1-1.268.871q-.739.309-1.688.309a4.3 4.3 0 0 1-1.621-.309 4 4 0 0 1-1.324-.86 4.08 4.08 0 0 1-1.225-2.956q0-.893.331-1.649a4.1 4.1 0 0 1 .894-1.307 4 4 0 0 1 1.324-.86 4.3 4.3 0 0 1 1.621-.309q.96 0 1.715.331a3.85 3.85 0 0 1 1.296.915l-1.026 1.004a2.7 2.7 0 0 0-.861-.623q-.474-.215-1.136-.215-.54 0-1.026.193a2.6 2.6 0 0 0-.849.546q-.364.352-.579.855a2.8 2.8 0 0 0-.215 1.119q0 .618.215 1.12t.585.855.854.546q.486.193 1.037.193.629 0 1.064-.182t.745-.469q.22-.198.38-.502a2.8 2.8 0 0 0 .248-.678h-2.482v-1.269zm46.203-5.035c-.006-1.224-.959-2.121-2.189-2.14-.924-.014-.832.12-.834-.867-.003-1.097-.007-2.194.003-3.292a1.4 1.4 0 0 0-.362-.976c-2.342-2.668-4.678-5.342-7.019-8.011-.12-.137-.275-.244-.414-.366h-18.641c-.794.293-1.14.868-1.138 1.709.01 3.748.004 7.496.004 11.243 0 .556-.003.589-.55.551-1.497-.102-2.516.986-2.497 2.492.044 3.476.013 6.953.014 10.429.001 1.58.867 2.443 2.45 2.449.582.002.582.002.582.6q-.001 3.328.001 6.657c.001 1.192.58 1.771 1.768 1.771h24.04q1.753-.001 1.757-1.745l.001-6.768c0-.512.002-.511.52-.515.271-.002.541.008.809-.058.996-.246 1.69-1.044 1.694-2.069q.026-5.546.001-11.094m-28.45-14.137h16.01c.548 0 .554.007.554.561l.001 6.73c.001.811.249 1.059 1.06 1.059l5.731.001c.458 0 .479.021.481.483q.004 1.331 0 2.662c-.001.477-.024.498-.504.499h-23.331c-.55 0-.552-.001-.552-.561v-10.871c-.001-.559.003-.563.55-.563m23.285 34.417h-23.263c-.572 0-.574-.002-.574-.579q-.002-2.995.001-5.991c0-.464.023-.486.478-.487h23.41c.478 0 .499.02.499.503v5.991c.001.558-.004.563-.551.563" style="fill:#fff"/><path d="M272.966 434.183v1.831h3.165v1.412h-3.165v1.831h3.518v1.412h-5.007v-7.897h5.007v1.412zm4.886 6.486v-7.897h2.779q.563 0 1.053.182.49.181.855.513.364.33.574.789.21.458.209 1.009 0 .563-.209 1.02-.21.457-.574.789a2.6 2.6 0 0 1-.855.513 3 3 0 0 1-1.053.182h-1.29v2.901zm2.801-4.313q.584 0 .882-.331a1.1 1.1 0 0 0 .298-.761q0-.21-.072-.408a.9.9 0 0 0-.221-.347 1.1 1.1 0 0 0-.37-.237 1.4 1.4 0 0 0-.518-.089h-1.312v2.173zm6.144 4.489q-.507 0-.971-.143a2.8 2.8 0 0 1-.849-.43 3 3 0 0 1-.673-.7 3.4 3.4 0 0 1-.452-.965l1.401-.551q.154.596.541.987.385.392 1.015.392.231 0 .447-.061a1.3 1.3 0 0 0 .386-.176.82.82 0 0 0 .37-.7 1 1 0 0 0-.077-.397.94.94 0 0 0-.259-.331 2.3 2.3 0 0 0-.474-.298 7 7 0 0 0-.723-.298l-.485-.176a3.7 3.7 0 0 1-.645-.298 2.8 2.8 0 0 1-.59-.452 2.2 2.2 0 0 1-.436-.623 1.86 1.86 0 0 1-.171-.81 2.1 2.1 0 0 1 .7-1.572q.337-.303.805-.474a3 3 0 0 1 1.042-.171q.596 0 1.031.16t.739.408a2.3 2.3 0 0 1 .491.546q.188.298.276.563l-1.312.551a1.4 1.4 0 0 0-.403-.596q-.293-.264-.799-.265-.486 0-.805.226a.7.7 0 0 0-.32.59q0 .353.309.601t.982.48l.496.165q.474.166.866.381.391.214.673.513a2.1 2.1 0 0 1 .43.678q.149.38.149.877 0 .618-.248 1.064a2.3 2.3 0 0 1-.634.734 2.8 2.8 0 0 1-.872.43 3.5 3.5 0 0 1-.951.141m34.597-1.677 4.004-4.985h-3.827v-1.412h5.559v1.5l-3.96 4.985h4.004v1.412h-5.779v-1.5zm7.015-6.397h1.489v7.897h-1.489zm3.077 7.898v-7.897h2.779q.563 0 1.053.182.49.181.855.513c.365.332.434.483.574.789q.21.458.209 1.009 0 .563-.209 1.02-.21.457-.574.789a2.6 2.6 0 0 1-.855.513 3 3 0 0 1-1.053.182h-1.29v2.901zm2.802-4.313q.584 0 .882-.331a1.1 1.1 0 0 0 .298-.761q0-.21-.072-.408a.9.9 0 0 0-.221-.347 1.1 1.1 0 0 0-.37-.237 1.4 1.4 0 0 0-.518-.089h-1.312v2.173z" style="fill:#fff"/></g><g style="opacity:.61"><path d="M300.133 433.27h9.067v2.242h-9.067zm0 3.866h9.067v2.243h-9.067z" style="fill:#fff"/></g><g style="opacity:.61"><path d="M156.756 478.878h1.607c1.263 0 2.114.812 2.114 1.974s-.851 1.973-2.114 1.973h-1.607zm1.584 3.586c1.049 0 1.725-.665 1.725-1.612s-.677-1.613-1.725-1.613h-1.167v3.225zm6.799-1.613c0-1.15.879-2.007 2.075-2.007 1.184 0 2.069.851 2.069 2.007s-.885 2.007-2.069 2.007c-1.195 0-2.075-.856-2.075-2.007m3.727 0c0-.942-.705-1.635-1.652-1.635-.953 0-1.663.693-1.663 1.635 0 .941.71 1.635 1.663 1.635.948 0 1.652-.693 1.652-1.635m10.73-1.973-1.331 3.947h-.44l-1.156-3.366-1.161 3.366h-.434l-1.331-3.947h.429l1.139 3.394 1.178-3.394h.389l1.161 3.411 1.156-3.411zm8.135 0v3.947h-.344l-2.537-3.202v3.202h-.417v-3.947h.344l2.543 3.203v-3.203zm5.362 0h.417v3.586h2.21v.361h-2.627zm6.968 1.973c0-1.15.879-2.007 2.075-2.007 1.184 0 2.069.851 2.069 2.007s-.885 2.007-2.069 2.007c-1.195 0-2.075-.856-2.075-2.007m3.727 0c0-.942-.705-1.635-1.652-1.635-.953 0-1.663.693-1.663 1.635 0 .941.71 1.635 1.663 1.635.947 0 1.652-.693 1.652-1.635m7.848.919h-2.199l-.474 1.054h-.434l1.804-3.947h.412l1.804 3.947h-.44zm-.152-.338-.947-2.12-.947 2.12zm5.796-2.554h1.607c1.263 0 2.114.812 2.114 1.974s-.851 1.973-2.114 1.973h-1.607zm1.584 3.586c1.049 0 1.725-.665 1.725-1.612s-.677-1.613-1.725-1.613h-1.167v3.225zm15.177-.694h-2.199l-.474 1.054h-.434l1.804-3.947h.412l1.804 3.947h-.44zm-.152-.338-.947-2.12-.947 2.12zm5.796-2.554h.417v3.586h2.21v.361h-2.627zm7.397 0h.417v3.586h2.21v.361h-2.627zm13.367.361v1.551h2.041v.361h-2.041v1.675h-.417v-3.947h2.706v.361zm7.229-.361h.417v3.947h-.417zm5.778 0h.417v3.586h2.21v.361h-2.627zm10.188 3.586v.361h-2.791v-3.947h2.706v.361h-2.289v1.404h2.041v.355h-2.041v1.466zm11.028-3.225v1.551h2.041v.361h-2.041v1.675h-.417v-3.947h2.706v.361zm6.828 1.612c0-1.15.879-2.007 2.075-2.007 1.184 0 2.069.851 2.069 2.007s-.885 2.007-2.069 2.007c-1.196 0-2.075-.856-2.075-2.007m3.726 0c0-.942-.705-1.635-1.652-1.635-.953 0-1.663.693-1.663 1.635 0 .941.71 1.635 1.663 1.635.948 0 1.652-.693 1.652-1.635m8.125 1.974-.902-1.269a3 3 0 0 1-.316.017h-1.06v1.252h-.417v-3.947h1.477c1.004 0 1.613.507 1.613 1.353 0 .62-.327 1.054-.902 1.24l.964 1.353zm-.023-2.594c0-.632-.417-.992-1.207-.992h-1.048v1.979h1.048c.79 0 1.207-.367 1.207-.987m9.579-1.353v3.947h-.4v-3.158l-1.551 2.656h-.197l-1.551-2.639v3.14h-.4v-3.947h.344l1.714 2.926 1.697-2.926h.344zm7.837 2.892h-2.199l-.473 1.054h-.434l1.804-3.947h.411l1.804 3.947h-.44zm-.152-.338-.947-2.12-.947 2.12zm6.365-2.193h-1.387v-.361h3.192v.361h-1.387v3.586h-.417v-3.586zm6.106 3.107.164-.321c.282.276.784.479 1.302.479.739 0 1.06-.31 1.06-.699 0-1.083-2.43-.417-2.43-1.877 0-.581.451-1.083 1.455-1.083.446 0 .908.13 1.224.35l-.141.333a2.03 2.03 0 0 0-1.083-.327c-.722 0-1.043.321-1.043.716 0 1.083 2.43.429 2.43 1.866 0 .581-.462 1.077-1.472 1.077-.592-.002-1.173-.21-1.466-.514" style="fill:#fff"/></g></g><path d="M202.259 250.007c0-32.748 22.353-46.4 43.979-46.4 21.504 0 43.857 13.652 43.857 46.4 0 32.739-22.353 46.386-43.857 46.386-21.626 0-43.979-13.648-43.979-46.386m63.672 0c0-16.434-7.135-26.467-19.694-26.467-12.681 0-19.816 10.033-19.816 26.467 0 16.427 7.135 27.06 19.816 27.06 12.56 0 19.694-10.633 19.694-27.06m30.758 44.693v-89.4h34.915c22.951 0 36.974 7.609 36.974 29.113 0 14.013-5.923 22.111-17.642 26.097l20.599 34.19h-25.61l-18.915-31.043h-6.639V294.7zm23.682-49.407h10.389c9.91 0 14.262-2.783 14.262-10.268 0-7.493-4.352-10.153-14.262-10.153h-10.389zm56.956 49.407v-89.4h24.161v31.179l24.651-31.179h28.029l-30.079 35.28 32.735 54.12h-27.306l-21.141-35.754-6.89 8.636V294.7zm-165.568-89.401h-27.448l-15.827 27.543-15.735-27.543h-27.578l31.176 52.072V294.7h24.284v-37.329l31.168-52.072zm246.501 6.733c0-4.757 3.669-8.425 8.423-8.425 4.685 0 8.316 3.63 8.316 8.351 0 4.757-3.669 8.425-8.423 8.425-4.722 0-8.316-3.631-8.316-8.351m15.033 0c0-3.886-2.868-6.864-6.716-6.864-3.778 0-6.609 2.905-6.609 6.79s2.831 6.826 6.716 6.826c3.777.001 6.609-2.868 6.609-6.752m-9.985-4.795h3.559c2.215 0 3.522.982 3.522 3.015 0 1.417-.619 2.179-1.635 2.651l1.817 3.486h-2.324l-1.635-3.231h-1.089v3.231h-2.215zm3.413 4.285c.982 0 1.526-.326 1.526-1.161 0-.8-.544-1.163-1.526-1.163h-1.198v2.324z" style="fill:#231f20"/><path d="M25 294.704h89.413v-89.415H57.942v.077h-6.409l.003-.077H25v19.304l.046.046v6.737l-.046-.035v12.555l.046-.014v6.737l-.046.052z" style="fill:#00549d"/><path d="m85.687 243.504-2.541-4.402-9.726 5.616-12.272-7.085 12.273-7.086 9.704 5.603 2.543-4.402-7.163-4.135 5.833-3.368-3.206-5.552-5.835 3.368v-8.276h-5.083v11.211l-12.272 7.085V217.93l9.705-5.604-2.543-4.402-7.162 4.136v-6.771h-6.41v15.037a17.5 17.5 0 0 0-4.368 1.429l-8.837-12.163-5.186 3.769 8.839 12.164a17.7 17.7 0 0 0-2.719 3.708l-14.257-4.64v6.751l12.289 3.991a18 18 0 0 0-.167 2.297c0 .78.069 1.543.167 2.297l-12.29 3.971v6.769l14.257-4.64a17.7 17.7 0 0 0 2.719 3.708l-8.838 12.164 5.186 3.768 8.836-12.163a17.5 17.5 0 0 0 4.369 1.431v15.022h6.41v-6.758l7.203 4.159 2.543-4.404-9.745-5.625v-14.15l12.291 7.096v11.185h5.084v-8.25l5.816 3.358 3.206-5.552-5.835-3.368zm-42.152-5.872c0-5.063 3.378-9.347 7.997-10.73v21.46c-4.62-1.384-7.997-5.667-7.997-10.73" style="fill:#fff"/></svg>